<svg id="Doc_Management1" data-name="Doc Management1" xmlns="http://www.w3.org/2000/svg" width="20" height="20" viewBox="0 0 20 20">
  <rect id="Rectangle_226" data-name="Rectangle 226" width="20" height="20" fill="none"/>
  <path id="Path_296" data-name="Path 296" d="M16.541,7.208,12.784,3.451A1.554,1.554,0,0,0,11.688,3H4.556A1.56,1.56,0,0,0,3,4.556V15.444A1.56,1.56,0,0,0,4.556,17H15.444A1.56,1.56,0,0,0,17,15.444V8.312A1.56,1.56,0,0,0,16.541,7.208Zm-10.43-1.1h5.444V7.667H6.111Zm7.778,7.778H6.111V12.333h7.778Zm0-3.111H6.111V9.222h7.778Z" transform="translate(0 0)" fill="#cbcbcb"/>
</svg>
