<svg xmlns="http://www.w3.org/2000/svg" width="18" height="18" viewBox="0 0 18 18">
  <defs>
    <clipPath id="clip-path">
      <rect id="Rectangle_260" data-name="Rectangle 260" width="18" height="18" transform="translate(-2492 1689)" fill="none" stroke="#707070" stroke-width="1"/>
    </clipPath>
  </defs>
  <g id="Mask_Group_43" data-name="Mask Group 43" transform="translate(2492 -1689)" clip-path="url(#clip-path)">
    <g id="_711894" data-name="711894" transform="translate(-2491 1690)">
      <g id="Group_31" data-name="Group 31" transform="translate(2.595 14.121)">
        <g id="Group_30" data-name="Group 30">
          <rect id="Rectangle_18" data-name="Rectangle 18" width="9.928" height="1.128" fill="#4c5058"/>
        </g>
      </g>
      <g id="Group_33" data-name="Group 33" transform="translate(5.302 5.039)">
        <g id="Group_32" data-name="Group 32">
          <path id="Path_81" data-name="Path 81" d="M180.984,169.726h-3.478a.564.564,0,1,0,0,1.128h3.478a.564.564,0,0,0,0-1.128Z" transform="translate(-176.941 -169.726)" fill="#d9261c"/>
        </g>
      </g>
      <g id="Group_35" data-name="Group 35" transform="translate(5.302 7.671)">
        <g id="Group_34" data-name="Group 34">
          <path id="Path_82" data-name="Path 82" d="M183.616,257.569h-6.111a.564.564,0,1,0,0,1.128h6.111a.564.564,0,0,0,0-1.128Z" transform="translate(-176.941 -257.569)" fill="#d9261c"/>
        </g>
      </g>
      <g id="Group_37" data-name="Group 37" transform="translate(0 0)">
        <g id="Group_36" data-name="Group 36">
          <path id="Path_83" data-name="Path 83" d="M15.01,1.636a.565.565,0,0,0-.605.092l-1.58,1.4L11.244,1.711a.564.564,0,0,0-.752,0L8.912,3.124,7.333,1.711a.564.564,0,0,0-.752,0L5,3.125l-1.58-1.4a.564.564,0,0,0-.938.422V12.191H.564A.564.564,0,0,0,0,12.755v1.373a2.692,2.692,0,0,0,2.689,2.689V15.688a1.562,1.562,0,0,1-1.561-1.561v-.808H9.965v.808a2.689,2.689,0,1,0,5.378,0V2.15A.564.564,0,0,0,15.01,1.636Zm-.8,12.491a1.561,1.561,0,0,1-3.121,0V12.755a.564.564,0,0,0-.564-.564H3.61V3.4l1.018.9a.564.564,0,0,0,.75,0L6.957,2.888,8.536,4.3a.564.564,0,0,0,.752,0l1.58-1.412L12.447,4.3a.564.564,0,0,0,.75,0l1.018-.9Z" transform="translate(0 -1.567)" fill="#4c5058"/>
        </g>
      </g>
    </g>
  </g>
</svg>
