<svg xmlns="http://www.w3.org/2000/svg" width="20" height="20" viewBox="0 0 20 20">
  <defs>
    <clipPath id="clip-path">
      <rect id="Rectangle_239" data-name="Rectangle 239" width="20" height="20" transform="translate(20656 6009)" fill="none" stroke="#707070" stroke-width="1"/>
    </clipPath>
  </defs>
  <g id="Goods_Service_Tax_Software" data-name="Goods &amp; Service Tax Software" transform="translate(-20656 -6009)" clip-path="url(#clip-path)">
    <path id="Path_304" data-name="Path 304" d="M172.75,196.129a8.225,8.225,0,1,0,8.225,8.225A8.235,8.235,0,0,0,172.75,196.129Zm-1.768,4.962a1.143,1.143,0,1,1-1.143,1.142A1.144,1.144,0,0,1,170.983,201.091Zm3.535,6.528a1.143,1.143,0,1,1,1.143-1.142A1.144,1.144,0,0,1,174.518,207.618Zm.962-4.777-4.242,4.242a.86.86,0,0,1-1.217-1.217l4.242-4.242a.86.86,0,0,1,1.217,1.217Z" transform="translate(20493.25 5814.646)" fill="#d9261c"/>
  </g>
</svg>
