<svg xmlns="http://www.w3.org/2000/svg" width="18" height="18" viewBox="0 0 18 18">
  <defs>
    <clipPath id="clip-path">
      <rect id="Rectangle_259" data-name="Rectangle 259" width="18" height="18" transform="translate(-2492 1635)" fill="none" stroke="#707070" stroke-width="1"/>
    </clipPath>
  </defs>
  <g id="Mask_Group_44" data-name="Mask Group 44" transform="translate(2492 -1635)" clip-path="url(#clip-path)">
    <g id="_3408773" data-name="3408773" transform="translate(-2490 1637)">
      <path id="Path_89" data-name="Path 89" d="M13.983,5.43H12.352V3.151a.425.425,0,0,0-.124-.3S9.516.113,9.5.1A.424.424,0,0,0,9.276,0C9.242,0,9.589,0,2.9,0a.845.845,0,0,0-.844.844V5.43H.424A.422.422,0,0,0,0,5.852v6.3a.422.422,0,0,0,.422.422H2.056v.985A.845.845,0,0,0,2.9,14.4h8.608a.845.845,0,0,0,.844-.844v-.985h1.632a.422.422,0,0,0,.422-.422v-6.3A.422.422,0,0,0,13.983,5.43ZM9.651,1.469l1.26,1.26H9.651ZM2.9.845H8.807V3.151a.422.422,0,0,0,.422.422h2.279V5.43H2.9ZM11.508,13.56H2.9v-.985h8.608Zm2.054-1.829H.846V6.274H13.561Z" transform="translate(-0.002 0)" fill="#4c5058"/>
      <path id="Path_90" data-name="Path 90" d="M75.674,249H73.424a.422.422,0,1,0,0,.844h.7v2.729a.422.422,0,0,0,.844,0v-2.729h.7a.422.422,0,1,0,0-.844Z" transform="translate(-70.948 -242)" fill="#d9261c"/>
      <path id="Path_91" data-name="Path 91" d="M199.114,249.323a.495.495,0,0,0-.92-.011l-1.179,3.116a.422.422,0,1,0,.789.3l.152-.4h1.383l.151.4a.422.422,0,1,0,.79-.3Zm-.838,2.157.375-.99.372.99Z" transform="translate(-191.446 -241.999)" fill="#d9261c"/>
      <path id="Path_92" data-name="Path 92" d="M331.311,249.18l-.782,1.095-.782-1.095a.422.422,0,0,0-.687.491l.95,1.33-.95,1.33a.422.422,0,1,0,.687.491l.782-1.095.782,1.095a.422.422,0,1,0,.687-.491l-.95-1.33.95-1.33a.422.422,0,0,0-.687-.491Z" transform="translate(-319.726 -241.999)" fill="#d9261c"/>
      <path id="Path_93" data-name="Path 93" d="M139.449,65h-2.025a.422.422,0,1,0,0,.844h2.025a.422.422,0,1,0,0-.844Z" transform="translate(-133.148 -63.176)" fill="#4c5058"/>
      <path id="Path_94" data-name="Path 94" d="M139.449,129.005h-2.025a.422.422,0,1,0,0,.844h2.025a.422.422,0,1,0,0-.844Z" transform="translate(-133.148 -125.376)" fill="#4c5058"/>
    </g>
  </g>
</svg>
