<svg xmlns="http://www.w3.org/2000/svg" width="18" height="18" viewBox="0 0 18 18">
  <defs>
    <clipPath id="clip-path">
      <rect id="Rectangle_261" data-name="Rectangle 261" width="18" height="18" transform="translate(-2493 1425)" fill="none" stroke="#a7a7a7" stroke-width="1"/>
    </clipPath>
  </defs>
  <g id="Mask_Group_49" data-name="Mask Group 49" transform="translate(2493 -1425)" clip-path="url(#clip-path)">
    <g id="_158738" data-name="158738" transform="translate(-2490.326 1428)">
      <g id="Group_549" data-name="Group 549" transform="translate(0 0)">
        <g id="Group_548" data-name="Group 548">
          <path id="Path_310" data-name="Path 310" d="M10.062,93.481a.428.428,0,0,0,.313.137.421.421,0,0,0,.306-.132l1.765-1.82a.469.469,0,0,0,.13-.33.485.485,0,0,0-.13-.33l-1.765-1.82a.425.425,0,0,0-.619.005.482.482,0,0,0,.005.652l1,1.031H9.957a2.231,2.231,0,0,1-1.745-.859L4.366,84.5a3.105,3.105,0,0,0-2.567-1.4H.536a.461.461,0,0,0,0,.921H1.8a2.242,2.242,0,0,1,1.859,1.02L7.52,90.573l.015.021A3.077,3.077,0,0,0,9.96,91.8h1.108l-1,1.031A.471.471,0,0,0,10.062,93.481Z" transform="translate(-0.097 -81.261)" fill="#a7a7a7" stroke="#a7a7a7" stroke-width="0.5"/>
          <path id="Path_311" data-name="Path 311" d="M265.61,16.771l-1.871-1.834a.461.461,0,0,0-.647.658l1.066,1.044h-1.168a3.308,3.308,0,0,0-2.556,1.2.156.156,0,0,0-.016.021l-.762,1.039a.46.46,0,0,0,.1.644.467.467,0,0,0,.271.089.453.453,0,0,0,.371-.188l.754-1.026a2.382,2.382,0,0,1,1.839-.859h1.168l-1.066,1.044a.461.461,0,0,0,.647.658l1.871-1.834a.467.467,0,0,0,0-.66Z" transform="translate(-253.271 -14.806)" fill="#a7a7a7" stroke="#a7a7a7" stroke-width="0.5"/>
          <path id="Path_312" data-name="Path 312" d="M4.5,295.6l.668-.907a.461.461,0,1,0-.744-.545l-.671.915-.008.013a2.4,2.4,0,0,1-1.952,1H.459a.46.46,0,0,0,0,.921H1.791A3.318,3.318,0,0,0,4.5,295.6Z" transform="translate(0 -286.465)" fill="#a7a7a7" stroke="#a7a7a7" stroke-width="0.5"/>
        </g>
      </g>
    </g>
  </g>
</svg>
