<svg xmlns="http://www.w3.org/2000/svg" width="20" height="20" viewBox="0 0 20 20">
  <defs>
    <clipPath id="clip-path">
      <rect id="Rectangle_250" data-name="Rectangle 250" width="20" height="20" transform="translate(20825 6056)" fill="none" stroke="#707070" stroke-width="1"/>
    </clipPath>
  </defs>
  <g id="Our_Stories1" data-name="Our Stories1" transform="translate(-20825 -6056)" clip-path="url(#clip-path)">
    <g id="Group_544" data-name="Group 544" transform="translate(21015.127 5510.2)">
      <path id="Path_307" data-name="Path 307" d="M-173.952,564h-11.009c-.137-.036-.276-.062-.409-.108a2.009,2.009,0,0,1-1.358-1.967q0-3.937,0-7.873,0-2.087,0-4.174a2.012,2.012,0,0,1,.853-1.71,2.368,2.368,0,0,1,.914-.365h11.009a.56.56,0,0,1,.379.6q-.005,7.5,0,14.993A.559.559,0,0,1-173.952,564Zm-8.557-6.923a.48.48,0,0,0,.236.457.5.5,0,0,0,.511-.016c.488-.259.981-.511,1.467-.774a.26.26,0,0,1,.29,0c.209.121.427.227.642.34.284.149.568.3.853.448a.465.465,0,0,0,.522-.028.456.456,0,0,0,.183-.474c-.009-.052-.016-.1-.024-.156-.088-.514-.174-1.028-.266-1.541a.245.245,0,0,1,.083-.248c.4-.378.791-.759,1.176-1.149a.7.7,0,0,0,.191-.331c.057-.294-.142-.5-.486-.551-.542-.076-1.084-.156-1.627-.232a.232.232,0,0,1-.2-.146c-.234-.489-.476-.974-.719-1.459a.9.9,0,0,0-.143-.225.473.473,0,0,0-.773.156c-.215.422-.445.839-.622,1.277a.646.646,0,0,1-.629.445c-.482.041-.96.127-1.437.21a.442.442,0,0,0-.373.559.764.764,0,0,0,.2.312q.569.572,1.156,1.125a.263.263,0,0,1,.09.276c-.043.206-.076.414-.112.622C-182.387,556.353-182.451,556.732-182.509,557.074Zm7.977,3.875h-10.055c-.089,0-.179,0-.268.011a1.048,1.048,0,0,0-.914,1.131,1.048,1.048,0,0,0,1.119.955h10.118Z" transform="translate(0 0)" fill="#cbcbcb"/>
    </g>
  </g>
</svg>
