<svg xmlns="http://www.w3.org/2000/svg" width="18" height="18" viewBox="0 0 18 18">
  <defs>
    <clipPath id="clip-path">
      <rect id="Rectangle_256" data-name="Rectangle 256" width="18" height="18" transform="translate(-2493 1483)" fill="none" stroke="#707070" stroke-width="1"/>
    </clipPath>
  </defs>
  <g id="Mask_Group_47" data-name="Mask Group 47" transform="translate(2493 -1483)" clip-path="url(#clip-path)">
    <g id="_3208914" data-name="3208914" transform="translate(-2490.945 1482.491)">
      <path id="Path_75" data-name="Path 75" d="M11.762,274.614,7.1,275.674a1.39,1.39,0,0,0-.365-.239l-2.392-1.073a2.631,2.631,0,0,0-2.183.01l-1.922.875a.406.406,0,1,0,.337.74L2.5,275.11a1.821,1.821,0,0,1,1.511-.007l2.392,1.073a.582.582,0,1,1-.477,1.061l-2.068-.931a.406.406,0,0,0-.333.741l2.068.931A1.4,1.4,0,0,0,7.53,276.41c3.034-.69,4.429-1.007,4.449-1.013a.842.842,0,0,1,.67,1.532l-4.377,2.578a1.809,1.809,0,0,1-1.524.151L3.39,278.482a.406.406,0,0,0-.279,0L.267,279.57a.406.406,0,0,0,.289.759L3.262,279.3l3.218,1.126a2.619,2.619,0,0,0,2.205-.219l4.377-2.578a1.655,1.655,0,0,0-1.3-3.014Z" transform="translate(-0.005 -264.574)" fill="#4c5058" stroke="#4c5058" stroke-width="0.4"/>
      <g id="Group_547" data-name="Group 547" transform="translate(5.132 3.463)">
        <path id="Path_309" data-name="Path 309" d="M335.024,130.068h3.6v.783h-.579v.409h.579v.708h-.62c-.143.783-.654,1.24-1.764,1.24v.272c0,.32.1.559.456.559.334,0,.443-.2.443-.572h1.076a1.357,1.357,0,0,1-1.492,1.451,1.411,1.411,0,0,1-1.573-1.594v-.879c1.288,0,1.662-.041,1.771-.477h-1.9v-.708h1.935v-.409h-1.935Z" transform="translate(-335.024 -130.068)" fill="#d9261c"/>
      </g>
    </g>
  </g>
</svg>
