<svg xmlns="http://www.w3.org/2000/svg" width="20" height="20" viewBox="0 0 20 20">
  <defs>
    <clipPath id="clip-path">
      <rect id="Rectangle_235" data-name="Rectangle 235" width="20" height="20" transform="translate(20556 5983)" fill="none" stroke="#707070" stroke-width="1"/>
    </clipPath>
  </defs>
  <g id="Wep_GST" data-name="Wep GST" transform="translate(-20556 -5983)" clip-path="url(#clip-path)">
    <path id="Path_302" data-name="Path 302" d="M110.828,70.12a1.76,1.76,0,0,0-.69-2.17l1.481-3.027a.64.64,0,0,0-.777-.888l-1.623.541-.7-.466a.641.641,0,0,0-.735.018l-.649.48-1.641-.569a.64.64,0,0,0-.784.886l1.481,3.027a1.76,1.76,0,0,0-.69,2.17,4.647,4.647,0,0,0-3.3,4.44v3.6a3.2,3.2,0,0,0,3.2,3.2h5.519a3.2,3.2,0,0,0,3.2-3.2v-3.6a4.647,4.647,0,0,0-3.3-4.44Zm-4.046,3.041a.861.861,0,1,1-.861.861A.862.862,0,0,1,106.782,73.16Zm.342-4.2h2.08a.48.48,0,1,1,0,.96h-2.08a.48.48,0,0,1,0-.96Zm2.422,9.238a.861.861,0,1,1,.861-.861A.862.862,0,0,1,109.546,78.2Zm.729-3.726-3.317,3.317a.64.64,0,1,1-.9-.9l3.317-3.317a.64.64,0,1,1,.9.9Z" transform="translate(20457.549 5920.063)" fill="#de7171"/>
  </g>
</svg>
