<svg xmlns="http://www.w3.org/2000/svg" width="18" height="18" viewBox="0 0 18 18">
  <defs>
    <clipPath id="clip-path">
      <rect id="Rectangle_267" data-name="Rectangle 267" width="18" height="18" transform="translate(-2493 1592)" fill="none" stroke="#a6a6a6" stroke-width="1"/>
    </clipPath>
  </defs>
  <g id="Mask_Group_52" data-name="Mask Group 52" transform="translate(2493 -1592)" clip-path="url(#clip-path)">
    <g id="_2099058" data-name="2099058" transform="translate(-2491 1594)">
      <path id="Path_315" data-name="Path 315" d="M7.439,14H6.561a1.29,1.29,0,0,1-1.289-1.289v-.3a5.652,5.652,0,0,1-.878-.364l-.211.211a1.289,1.289,0,0,1-1.823,0l-.621-.621a1.289,1.289,0,0,1,0-1.823l.21-.21a5.652,5.652,0,0,1-.364-.878h-.3A1.29,1.29,0,0,1,0,7.439V6.561A1.29,1.29,0,0,1,1.289,5.272h.3a5.653,5.653,0,0,1,.364-.878L1.74,4.184a1.289,1.289,0,0,1,0-1.823l.621-.621a1.289,1.289,0,0,1,1.823,0l.21.21a5.657,5.657,0,0,1,.878-.364v-.3A1.29,1.29,0,0,1,6.561,0h.879A1.29,1.29,0,0,1,8.728,1.289v.3a5.652,5.652,0,0,1,.878.364l.211-.211a1.289,1.289,0,0,1,1.823,0l.621.621a1.289,1.289,0,0,1,0,1.823l-.21.21a5.653,5.653,0,0,1,.364.878h.3A1.29,1.29,0,0,1,14,6.561v.879a1.29,1.29,0,0,1-1.289,1.289h-.3a5.654,5.654,0,0,1-.364.878l.211.211a1.289,1.289,0,0,1,0,1.823l-.621.621a1.289,1.289,0,0,1-1.823,0l-.21-.21a5.657,5.657,0,0,1-.878.364v.3A1.29,1.29,0,0,1,7.439,14ZM4.531,11.188a4.835,4.835,0,0,0,1.253.52.41.41,0,0,1,.308.4v.606a.469.469,0,0,0,.469.468h.879a.469.469,0,0,0,.469-.468v-.606a.41.41,0,0,1,.308-.4,4.835,4.835,0,0,0,1.253-.52.41.41,0,0,1,.5.063l.429.429a.468.468,0,0,0,.662,0l.621-.621a.468.468,0,0,0,0-.662l-.429-.429a.41.41,0,0,1-.063-.5,4.834,4.834,0,0,0,.52-1.253.41.41,0,0,1,.4-.308h.606a.469.469,0,0,0,.469-.468V6.561a.469.469,0,0,0-.469-.468h-.606a.41.41,0,0,1-.4-.308,4.835,4.835,0,0,0-.52-1.253.41.41,0,0,1,.063-.5L11.68,3.6a.468.468,0,0,0,0-.662l-.621-.621a.468.468,0,0,0-.662,0l-.429.429a.41.41,0,0,1-.5.063,4.835,4.835,0,0,0-1.253-.52.41.41,0,0,1-.308-.4V1.289A.469.469,0,0,0,7.439.82H6.561a.469.469,0,0,0-.469.468v.606a.41.41,0,0,1-.308.4,4.835,4.835,0,0,0-1.253.52.41.41,0,0,1-.5-.063L3.6,2.32a.468.468,0,0,0-.662,0l-.621.621a.468.468,0,0,0,0,.662l.429.429a.41.41,0,0,1,.063.5,4.834,4.834,0,0,0-.52,1.253.41.41,0,0,1-.4.308H1.289a.469.469,0,0,0-.469.469v.879a.469.469,0,0,0,.469.468h.606a.41.41,0,0,1,.4.308,4.835,4.835,0,0,0,.52,1.253.41.41,0,0,1-.063.5L2.32,10.4a.468.468,0,0,0,0,.662l.621.621a.468.468,0,0,0,.662,0l.429-.429a.412.412,0,0,1,.5-.063Z" transform="translate(0 0)" fill="#a6a6a6" stroke="#a6a6a6" stroke-width="0.2"/>
      <path id="Path_316" data-name="Path 316" d="M147.6,150.6a3,3,0,1,1,3-3A3,3,0,0,1,147.6,150.6Zm0-5.194a2.193,2.193,0,1,0,2.193,2.193A2.2,2.2,0,0,0,147.6,145.408Z" transform="translate(-140.601 -140.601)" fill="#a6a6a6" stroke="#a6a6a6" stroke-width="0.2"/>
    </g>
  </g>
</svg>
