<?xml version="1.0" encoding="UTF-8"?>
<svg width="16px" height="11px" viewBox="0 0 16 11" version="1.1" xmlns="http://www.w3.org/2000/svg">
    <title>australia</title>
    <g id="Page-1" stroke="none" stroke-width="1" fill="none" fill-rule="evenodd">
        <g id="Contact-Us" transform="translate(-170.000000, -637.000000)" fill-rule="nonzero">
            <g id="Group-24" transform="translate(170.000000, 170.000000)">
                <g id="Group-3" transform="translate(0.000000, 137.000000)">
                    <g id="Group-29" transform="translate(0.000000, 72.000000)">
                        <g id="Group-28-Copy" transform="translate(0.000000, 255.000000)">
                            <g id="australia" transform="translate(0.000000, 3.000000)">
                                <path d="M14.8017187,0.00859375 L1.19828125,0.00859375 C0.53646875,0.00859375 0,0.5450625 0,1.206875 L0,9.293125 C0,9.95490625 0.53646875,10.4914063 1.19828125,10.4914063 L14.8017187,10.4914063 C15.4635,10.4914063 16,9.9549375 16,9.293125 L16,1.206875 C16,0.5450625 15.4635313,0.00859375 14.8017187,0.00859375 Z" id="Path" fill="#41479B"></path>
                                <path d="M0.275875,5.24996875 L0.7550625,5.24996875 L3.310375,3.57578125 L3.310375,5.24996875 L4.6896875,5.24996875 L4.6896875,3.57578125 L7.24496875,5.24996875 L7.72415625,5.24996875 C7.8765,5.24996875 8.00003125,5.1264375 8.00003125,4.97409375 L8.00003125,4.75528125 L5.8076875,3.3189375 L8.00003125,3.3189375 L8.00003125,1.939625 L5.80765625,1.939625 L8.00003125,0.50328125 L8.00003125,0.28446875 C8.00003125,0.13209375 7.87646875,0.00859375 7.724125,0.00859375 L7.2449375,0.00859375 L4.689625,1.68278125 L4.689625,0.00859375 L3.3103125,0.00859375 L3.3103125,1.68278125 L0.838875,0.06353125 C0.5503125,0.15415625 0.3090625,0.351125 0.16040625,0.60834375 L2.192375,1.939625 L0,1.939625 L0,3.3189375 L2.19234375,3.3189375 L0,4.75528125 L0,4.97409375 C0,5.1264375 0.12346875,5.24996875 0.275875,5.24996875 Z" id="Path" fill="#F5F5F5"></path>
                                <g id="Group" fill="#FF4B55">
                                    <polygon id="Path" points="8 2.2155 4.41378125 2.2155 4.41378125 0.00859375 3.58621875 0.00859375 3.58621875 2.2155 0 2.2155 0 3.0430625 3.58621875 3.0430625 3.58621875 5.24996875 4.41378125 5.24996875 4.41378125 3.0430625 8 3.0430625"></polygon>
                                    <path d="M0.25709375,0.46565625 L2.52778125,1.939625 L3.03446875,1.939625 L0.45646875,0.2661875 C0.3824375,0.324625 0.31553125,0.39159375 0.25709375,0.46565625 Z" id="Path"></path>
                                    <path d="M5.19634375,1.939625 L7.95803125,0.1469375 C7.91003125,0.06571875 7.82534375,0.00859375 7.724125,0.00859375 L7.6644375,0.00859375 L4.68965625,1.939625 L5.19634375,1.939625 Z" id="Path"></path>
                                    <path d="M2.7960625,3.3189375 L0.03965625,5.1081875 C0.0871875,5.191375 0.1731875,5.24996875 0.275875,5.24996875 L0.32790625,5.24996875 L3.30278125,3.3189375 L2.7960625,3.3189375 Z" id="Path"></path>
                                    <path d="M7.995625,4.99578125 L5.4123125,3.31896875 L4.905625,3.31896875 L7.8391875,5.2231875 C7.9270625,5.18240625 7.98734375,5.0969375 7.995625,4.99578125 Z" id="Path"></path>
                                </g>
                                <g id="Group" transform="translate(2.750000, 1.843750)" fill="#F5F5F5">
                                    <path d="M1.33346875,4.9103125 L1.5416875,5.59771875 L2.20896875,5.3319375 C2.26590625,5.30925 2.31765625,5.3741875 2.28290625,5.424625 L1.87528125,6.016 L2.49909375,6.37196875 C2.5523125,6.40234375 2.53384375,6.48328125 2.47271875,6.4875625 L1.7561875,6.53759375 L1.86684375,7.24725 C1.87628125,7.3078125 1.80146875,7.34384375 1.76003125,7.2986875 L1.27415625,6.7696875 L0.78828125,7.2986875 C0.74684375,7.3438125 0.67203125,7.30778125 0.68146875,7.24725 L0.792125,6.53759375 L0.07559375,6.4875625 C0.01446875,6.48328125 -0.00403125,6.40234375 0.04921875,6.37196875 L0.67303125,6.016 L0.26540625,5.424625 C0.23065625,5.3741875 0.28240625,5.30925 0.33934375,5.3319375 L1.006625,5.59771875 L1.21484375,4.9103125 C1.2326875,4.85165625 1.31571875,4.85165625 1.33346875,4.9103125 Z" id="Path"></path>
                                    <path d="M9.53996875,0.02278125 L9.6416875,0.3585625 L9.967625,0.22875 C9.99540625,0.2176875 10.0207188,0.249375 10.0037187,0.27403125 L9.804625,0.5629375 L10.1093437,0.73684375 C10.1353437,0.75165625 10.1263125,0.79121875 10.0964375,0.79328125 L9.7464375,0.81771875 L9.80046875,1.164375 C9.80509375,1.19396875 9.76853125,1.2115625 9.74828125,1.1895 L9.5109375,0.93109375 L9.27359375,1.1895 C9.25334375,1.21153125 9.2168125,1.1939375 9.22140625,1.164375 L9.2754375,0.81771875 L8.9254375,0.79328125 C8.8955625,0.7911875 8.88653125,0.75165625 8.91253125,0.73684375 L9.21725,0.5629375 L9.01815625,0.27403125 C9.00115625,0.249375 9.02646875,0.2176875 9.05425,0.22875 L9.38021875,0.3585625 L9.4819375,0.02278125 C9.49071875,-0.00590625 9.5313125,-0.00590625 9.53996875,0.02278125 Z" id="Path"></path>
                                    <path d="M7.2719375,2.600125 L7.37365625,2.93590625 L7.699625,2.80609375 C7.72740625,2.79503125 7.75271875,2.82671875 7.73571875,2.851375 L7.536625,3.14028125 L7.84134375,3.3141875 C7.86734375,3.329 7.8583125,3.3685625 7.8284375,3.370625 L7.4784375,3.3950625 L7.5325,3.74171875 C7.537125,3.7713125 7.5005625,3.78890625 7.4803125,3.76684375 L7.24296875,3.5084375 L7.005625,3.76684375 C6.985375,3.788875 6.94884375,3.77128125 6.9534375,3.74171875 L7.0075,3.3950625 L6.6575,3.370625 C6.627625,3.36853125 6.61859375,3.329 6.64459375,3.3141875 L6.9493125,3.14028125 L6.75021875,2.851375 C6.73321875,2.82671875 6.75853125,2.79503125 6.7863125,2.80609375 L7.11228125,2.93590625 L7.214,2.600125 C7.2226875,2.57146875 7.26325,2.57146875 7.2719375,2.600125 Z" id="Path"></path>
                                    <path d="M11.6857187,1.49665625 L11.7874375,1.8324375 L12.1134062,1.702625 C12.1411875,1.6915625 12.1665,1.72325 12.1495,1.74790625 L11.9504062,2.0368125 L12.255125,2.21071875 C12.281125,2.22553125 12.2720937,2.26509375 12.2422187,2.26715625 L11.8922187,2.29159375 L11.9462812,2.63825 C11.9509062,2.66784375 11.9143437,2.6854375 11.8940937,2.663375 L11.65675,2.40496875 L11.4194062,2.663375 C11.3991562,2.68540625 11.362625,2.6678125 11.36725,2.63825 L11.4213125,2.29159375 L11.0713125,2.26715625 C11.0414375,2.2650625 11.0324062,2.22553125 11.0584062,2.21071875 L11.363125,2.0368125 L11.1640312,1.74790625 C11.1470312,1.72325 11.1723437,1.6915625 11.200125,1.702625 L11.5260937,1.8324375 L11.6278125,1.49665625 C11.6364687,1.46803125 11.6770312,1.46803125 11.6857187,1.49665625 Z" id="Path"></path>
                                    <path d="M9.53996875,5.91046875 L9.6416875,6.24625 L9.967625,6.11640625 C9.99540625,6.10534375 10.0207188,6.13703125 10.0037187,6.1616875 L9.804625,6.45059375 L10.1093437,6.6245 C10.1353437,6.6393125 10.1263125,6.678875 10.0964375,6.6809375 L9.7464375,6.705375 L9.80046875,7.05203125 C9.80509375,7.081625 9.76853125,7.09921875 9.74828125,7.07715625 L9.5109375,6.81875 L9.27359375,7.07715625 C9.25334375,7.0991875 9.2168125,7.08159375 9.22140625,7.05203125 L9.2754375,6.705375 L8.9254375,6.6809375 C8.8955625,6.678875 8.88653125,6.6393125 8.91253125,6.6245 L9.21725,6.45059375 L9.01815625,6.1616875 C9.00115625,6.13703125 9.02646875,6.10534375 9.05425,6.11640625 L9.38021875,6.24625 L9.4819375,5.91046875 C9.49071875,5.88184375 9.5313125,5.88184375 9.53996875,5.91046875 Z" id="Path"></path>
                                    <path d="M10.3269063,3.2035 L10.24525,3.448375 L9.98715625,3.450375 C9.95375,3.45065625 9.939875,3.49328125 9.96678125,3.513125 L10.1744063,3.66646875 L10.0965312,3.9125625 C10.0864687,3.9444375 10.12275,3.97078125 10.1499063,3.95134375 L10.3599063,3.80125 L10.5699063,3.95134375 C10.5970938,3.97075 10.6333438,3.94440625 10.6232813,3.9125625 L10.5454063,3.66646875 L10.7530625,3.513125 C10.7799688,3.49325 10.7660938,3.45065625 10.7326875,3.450375 L10.4745938,3.448375 L10.3929375,3.2035 C10.3823125,3.1718125 10.3374687,3.1718125 10.3269063,3.2035 Z" id="Path"></path>
                                </g>
                            </g>
                        </g>
                    </g>
                </g>
            </g>
        </g>
    </g>
</svg>
