<?xml version="1.0" encoding="UTF-8"?>
<svg width="16px" height="12px" viewBox="0 0 16 12" version="1.1" xmlns="http://www.w3.org/2000/svg" xmlns:xlink="http://www.w3.org/1999/xlink">
    <!-- Generator: Sketch 43.2 (39069) - http://www.bohemiancoding.com/sketch -->
    <title>icon-us-flag</title>
    <desc>Created with Sketch.</desc>
    <defs>
        <rect id="path-1" x="0" y="0" width="16" height="12" rx="1.33333333"></rect>
        <rect id="path-3" x="0" y="0" width="16" height="12" rx="1.33333333"></rect>
        <rect id="path-5" x="0" y="0" width="16" height="12" rx="1.33333333"></rect>
        <linearGradient x1="50%" y1="0%" x2="50%" y2="100%" id="linearGradient-7">
            <stop stop-color="#FFFFFF" offset="0%"></stop>
            <stop stop-color="#F0F0F0" offset="100%"></stop>
        </linearGradient>
    </defs>
    <g id="Page-1" stroke="none" stroke-width="1" fill="none" fill-rule="evenodd">
        <g id="iPad-Pro-Portrait" transform="translate(-562.000000, -726.000000)">
            <g id="icon-us-flag" transform="translate(562.000000, 726.000000)">
                <g id="Mask" fill-rule="nonzero" fill="#FFFFFF">
                    <rect id="path-2" x="0" y="0" width="16" height="12" rx="1.33333333"></rect>
                </g>
                <g id="Rectangle-511-Clipped">
                    <mask id="mask-2" fill="white">
                        <use xlink:href="#path-1"></use>
                    </mask>
                    <g id="path-2"></g>
                    <path d="M0,0 L16,0 L16,0.8 L0,0.8 L0,0 Z M0,1.6 L16,1.6 L16,2.4 L0,2.4 L0,1.6 Z M0,3.2 L16,3.2 L16,4 L0,4 L0,3.2 Z M0,4.8 L16,4.8 L16,5.6 L0,5.6 L0,4.8 Z M0,6.4 L16,6.4 L16,7.2 L0,7.2 L0,6.4 Z M0,8 L16,8 L16,8.8 L0,8.8 L0,8 Z M0,9.6 L16,9.6 L16,10.4 L0,10.4 L0,9.6 Z M0,11.2 L16,11.2 L16,12 L0,12 L0,11.2 Z" id="Rectangle-511" fill="#D02F44" fill-rule="nonzero" mask="url(#mask-2)"></path>
                </g>
                <g id="Rectangle-511-Clipped">
                    <mask id="mask-4" fill="white">
                        <use xlink:href="#path-3"></use>
                    </mask>
                    <g id="path-2"></g>
                    <rect id="Rectangle-511" fill="#46467F" fill-rule="nonzero" mask="url(#mask-4)" x="0" y="0" width="6.85714286" height="5.6"></rect>
                </g>
                <g id="Oval-43-Clipped">
                    <mask id="mask-6" fill="white">
                        <use xlink:href="#path-5"></use>
                    </mask>
                    <g id="path-2"></g>
                    <g id="Oval-43" mask="url(#mask-6)">
                        <g id="path-5-link" fill-rule="nonzero" fill="#000000">
                            <path d="M1.14285714,1.6 C0.932462952,1.6 0.761904762,1.4209139 0.761904762,1.2 C0.761904762,0.9790861 0.932462952,0.8 1.14285714,0.8 C1.35325133,0.8 1.52380952,0.9790861 1.52380952,1.2 C1.52380952,1.4209139 1.35325133,1.6 1.14285714,1.6 Z M2.66666667,1.6 C2.45627248,1.6 2.28571429,1.4209139 2.28571429,1.2 C2.28571429,0.9790861 2.45627248,0.8 2.66666667,0.8 C2.87706086,0.8 3.04761905,0.9790861 3.04761905,1.2 C3.04761905,1.4209139 2.87706086,1.6 2.66666667,1.6 Z M4.19047619,1.6 C3.980082,1.6 3.80952381,1.4209139 3.80952381,1.2 C3.80952381,0.9790861 3.980082,0.8 4.19047619,0.8 C4.40087038,0.8 4.57142857,0.9790861 4.57142857,1.2 C4.57142857,1.4209139 4.40087038,1.6 4.19047619,1.6 Z M5.71428571,1.6 C5.50389152,1.6 5.33333333,1.4209139 5.33333333,1.2 C5.33333333,0.9790861 5.50389152,0.8 5.71428571,0.8 C5.9246799,0.8 6.0952381,0.9790861 6.0952381,1.2 C6.0952381,1.4209139 5.9246799,1.6 5.71428571,1.6 Z M1.9047619,2.4 C1.69436771,2.4 1.52380952,2.2209139 1.52380952,2 C1.52380952,1.7790861 1.69436771,1.6 1.9047619,1.6 C2.1151561,1.6 2.28571429,1.7790861 2.28571429,2 C2.28571429,2.2209139 2.1151561,2.4 1.9047619,2.4 Z M3.42857143,2.4 C3.21817724,2.4 3.04761905,2.2209139 3.04761905,2 C3.04761905,1.7790861 3.21817724,1.6 3.42857143,1.6 C3.63896562,1.6 3.80952381,1.7790861 3.80952381,2 C3.80952381,2.2209139 3.63896562,2.4 3.42857143,2.4 Z M4.95238095,2.4 C4.74198676,2.4 4.57142857,2.2209139 4.57142857,2 C4.57142857,1.7790861 4.74198676,1.6 4.95238095,1.6 C5.16277514,1.6 5.33333333,1.7790861 5.33333333,2 C5.33333333,2.2209139 5.16277514,2.4 4.95238095,2.4 Z M5.71428571,3.2 C5.50389152,3.2 5.33333333,3.0209139 5.33333333,2.8 C5.33333333,2.5790861 5.50389152,2.4 5.71428571,2.4 C5.9246799,2.4 6.0952381,2.5790861 6.0952381,2.8 C6.0952381,3.0209139 5.9246799,3.2 5.71428571,3.2 Z M4.19047619,3.2 C3.980082,3.2 3.80952381,3.0209139 3.80952381,2.8 C3.80952381,2.5790861 3.980082,2.4 4.19047619,2.4 C4.40087038,2.4 4.57142857,2.5790861 4.57142857,2.8 C4.57142857,3.0209139 4.40087038,3.2 4.19047619,3.2 Z M2.66666667,3.2 C2.45627248,3.2 2.28571429,3.0209139 2.28571429,2.8 C2.28571429,2.5790861 2.45627248,2.4 2.66666667,2.4 C2.87706086,2.4 3.04761905,2.5790861 3.04761905,2.8 C3.04761905,3.0209139 2.87706086,3.2 2.66666667,3.2 Z M1.14285714,3.2 C0.932462952,3.2 0.761904762,3.0209139 0.761904762,2.8 C0.761904762,2.5790861 0.932462952,2.4 1.14285714,2.4 C1.35325133,2.4 1.52380952,2.5790861 1.52380952,2.8 C1.52380952,3.0209139 1.35325133,3.2 1.14285714,3.2 Z M1.9047619,4 C1.69436771,4 1.52380952,3.8209139 1.52380952,3.6 C1.52380952,3.3790861 1.69436771,3.2 1.9047619,3.2 C2.1151561,3.2 2.28571429,3.3790861 2.28571429,3.6 C2.28571429,3.8209139 2.1151561,4 1.9047619,4 Z M3.42857143,4 C3.21817724,4 3.04761905,3.8209139 3.04761905,3.6 C3.04761905,3.3790861 3.21817724,3.2 3.42857143,3.2 C3.63896562,3.2 3.80952381,3.3790861 3.80952381,3.6 C3.80952381,3.8209139 3.63896562,4 3.42857143,4 Z M4.95238095,4 C4.74198676,4 4.57142857,3.8209139 4.57142857,3.6 C4.57142857,3.3790861 4.74198676,3.2 4.95238095,3.2 C5.16277514,3.2 5.33333333,3.3790861 5.33333333,3.6 C5.33333333,3.8209139 5.16277514,4 4.95238095,4 Z M5.71428571,4.8 C5.50389152,4.8 5.33333333,4.6209139 5.33333333,4.4 C5.33333333,4.1790861 5.50389152,4 5.71428571,4 C5.9246799,4 6.0952381,4.1790861 6.0952381,4.4 C6.0952381,4.6209139 5.9246799,4.8 5.71428571,4.8 Z M4.19047619,4.8 C3.980082,4.8 3.80952381,4.6209139 3.80952381,4.4 C3.80952381,4.1790861 3.980082,4 4.19047619,4 C4.40087038,4 4.57142857,4.1790861 4.57142857,4.4 C4.57142857,4.6209139 4.40087038,4.8 4.19047619,4.8 Z M2.66666667,4.8 C2.45627248,4.8 2.28571429,4.6209139 2.28571429,4.4 C2.28571429,4.1790861 2.45627248,4 2.66666667,4 C2.87706086,4 3.04761905,4.1790861 3.04761905,4.4 C3.04761905,4.6209139 2.87706086,4.8 2.66666667,4.8 Z M1.14285714,4.8 C0.932462952,4.8 0.761904762,4.6209139 0.761904762,4.4 C0.761904762,4.1790861 0.932462952,4 1.14285714,4 C1.35325133,4 1.52380952,4.1790861 1.52380952,4.4 C1.52380952,4.6209139 1.35325133,4.8 1.14285714,4.8 Z" id="path-5"></path>
                        </g>
                        <g id="path-5-link" fill="url(#linearGradient-7)">
                            <path d="M1.14285714,1.6 C0.932462952,1.6 0.761904762,1.4209139 0.761904762,1.2 C0.761904762,0.9790861 0.932462952,0.8 1.14285714,0.8 C1.35325133,0.8 1.52380952,0.9790861 1.52380952,1.2 C1.52380952,1.4209139 1.35325133,1.6 1.14285714,1.6 Z M2.66666667,1.6 C2.45627248,1.6 2.28571429,1.4209139 2.28571429,1.2 C2.28571429,0.9790861 2.45627248,0.8 2.66666667,0.8 C2.87706086,0.8 3.04761905,0.9790861 3.04761905,1.2 C3.04761905,1.4209139 2.87706086,1.6 2.66666667,1.6 Z M4.19047619,1.6 C3.980082,1.6 3.80952381,1.4209139 3.80952381,1.2 C3.80952381,0.9790861 3.980082,0.8 4.19047619,0.8 C4.40087038,0.8 4.57142857,0.9790861 4.57142857,1.2 C4.57142857,1.4209139 4.40087038,1.6 4.19047619,1.6 Z M5.71428571,1.6 C5.50389152,1.6 5.33333333,1.4209139 5.33333333,1.2 C5.33333333,0.9790861 5.50389152,0.8 5.71428571,0.8 C5.9246799,0.8 6.0952381,0.9790861 6.0952381,1.2 C6.0952381,1.4209139 5.9246799,1.6 5.71428571,1.6 Z M1.9047619,2.4 C1.69436771,2.4 1.52380952,2.2209139 1.52380952,2 C1.52380952,1.7790861 1.69436771,1.6 1.9047619,1.6 C2.1151561,1.6 2.28571429,1.7790861 2.28571429,2 C2.28571429,2.2209139 2.1151561,2.4 1.9047619,2.4 Z M3.42857143,2.4 C3.21817724,2.4 3.04761905,2.2209139 3.04761905,2 C3.04761905,1.7790861 3.21817724,1.6 3.42857143,1.6 C3.63896562,1.6 3.80952381,1.7790861 3.80952381,2 C3.80952381,2.2209139 3.63896562,2.4 3.42857143,2.4 Z M4.95238095,2.4 C4.74198676,2.4 4.57142857,2.2209139 4.57142857,2 C4.57142857,1.7790861 4.74198676,1.6 4.95238095,1.6 C5.16277514,1.6 5.33333333,1.7790861 5.33333333,2 C5.33333333,2.2209139 5.16277514,2.4 4.95238095,2.4 Z M5.71428571,3.2 C5.50389152,3.2 5.33333333,3.0209139 5.33333333,2.8 C5.33333333,2.5790861 5.50389152,2.4 5.71428571,2.4 C5.9246799,2.4 6.0952381,2.5790861 6.0952381,2.8 C6.0952381,3.0209139 5.9246799,3.2 5.71428571,3.2 Z M4.19047619,3.2 C3.980082,3.2 3.80952381,3.0209139 3.80952381,2.8 C3.80952381,2.5790861 3.980082,2.4 4.19047619,2.4 C4.40087038,2.4 4.57142857,2.5790861 4.57142857,2.8 C4.57142857,3.0209139 4.40087038,3.2 4.19047619,3.2 Z M2.66666667,3.2 C2.45627248,3.2 2.28571429,3.0209139 2.28571429,2.8 C2.28571429,2.5790861 2.45627248,2.4 2.66666667,2.4 C2.87706086,2.4 3.04761905,2.5790861 3.04761905,2.8 C3.04761905,3.0209139 2.87706086,3.2 2.66666667,3.2 Z M1.14285714,3.2 C0.932462952,3.2 0.761904762,3.0209139 0.761904762,2.8 C0.761904762,2.5790861 0.932462952,2.4 1.14285714,2.4 C1.35325133,2.4 1.52380952,2.5790861 1.52380952,2.8 C1.52380952,3.0209139 1.35325133,3.2 1.14285714,3.2 Z M1.9047619,4 C1.69436771,4 1.52380952,3.8209139 1.52380952,3.6 C1.52380952,3.3790861 1.69436771,3.2 1.9047619,3.2 C2.1151561,3.2 2.28571429,3.3790861 2.28571429,3.6 C2.28571429,3.8209139 2.1151561,4 1.9047619,4 Z M3.42857143,4 C3.21817724,4 3.04761905,3.8209139 3.04761905,3.6 C3.04761905,3.3790861 3.21817724,3.2 3.42857143,3.2 C3.63896562,3.2 3.80952381,3.3790861 3.80952381,3.6 C3.80952381,3.8209139 3.63896562,4 3.42857143,4 Z M4.95238095,4 C4.74198676,4 4.57142857,3.8209139 4.57142857,3.6 C4.57142857,3.3790861 4.74198676,3.2 4.95238095,3.2 C5.16277514,3.2 5.33333333,3.3790861 5.33333333,3.6 C5.33333333,3.8209139 5.16277514,4 4.95238095,4 Z M5.71428571,4.8 C5.50389152,4.8 5.33333333,4.6209139 5.33333333,4.4 C5.33333333,4.1790861 5.50389152,4 5.71428571,4 C5.9246799,4 6.0952381,4.1790861 6.0952381,4.4 C6.0952381,4.6209139 5.9246799,4.8 5.71428571,4.8 Z M4.19047619,4.8 C3.980082,4.8 3.80952381,4.6209139 3.80952381,4.4 C3.80952381,4.1790861 3.980082,4 4.19047619,4 C4.40087038,4 4.57142857,4.1790861 4.57142857,4.4 C4.57142857,4.6209139 4.40087038,4.8 4.19047619,4.8 Z M2.66666667,4.8 C2.45627248,4.8 2.28571429,4.6209139 2.28571429,4.4 C2.28571429,4.1790861 2.45627248,4 2.66666667,4 C2.87706086,4 3.04761905,4.1790861 3.04761905,4.4 C3.04761905,4.6209139 2.87706086,4.8 2.66666667,4.8 Z M1.14285714,4.8 C0.932462952,4.8 0.761904762,4.6209139 0.761904762,4.4 C0.761904762,4.1790861 0.932462952,4 1.14285714,4 C1.35325133,4 1.52380952,4.1790861 1.52380952,4.4 C1.52380952,4.6209139 1.35325133,4.8 1.14285714,4.8 Z" id="path-5"></path>
                        </g>
                    </g>
                </g>
            </g>
        </g>
    </g>
</svg>