<?xml version="1.0" encoding="UTF-8"?>
<svg width="16px" height="11px" viewBox="0 0 16 11" version="1.1" xmlns="http://www.w3.org/2000/svg">
    <title>singapore</title>
    <g id="Page-1" stroke="none" stroke-width="1" fill="none" fill-rule="evenodd">
        <g id="Contact-Us" transform="translate(-170.000000, -722.000000)" fill-rule="nonzero">
            <g id="Group-24" transform="translate(170.000000, 170.000000)">
                <g id="Group-3" transform="translate(0.000000, 137.000000)">
                    <g id="Group-29" transform="translate(0.000000, 72.000000)">
                        <g id="Group-28-Copy-2" transform="translate(0.000000, 340.000000)">
                            <g id="singapore" transform="translate(0.000000, 3.000000)">
                                <path d="M16.0000312,5.25 L0,5.25 L0,0.28446875 C0,0.132125 0.12353125,0.00859375 0.275875,0.00859375 L15.7241563,0.00859375 C15.8765,0.00859375 16.0000312,0.132125 16.0000312,0.28446875 L16.0000312,5.25 L16.0000312,5.25 Z" id="Path" fill="#FF4B55"></path>
                                <g id="Group" transform="translate(0.000000, 0.687500)" fill="#F5F5F5">
                                    <path d="M0,4.5625 L16,4.5625 L16,9.52803125 C16,9.680375 15.8764688,9.80390625 15.724125,9.80390625 L0.275875,9.80390625 C0.12353125,9.80390625 0,9.680375 0,9.52803125 L0,4.5625 Z" id="Path"></path>
                                    <path d="M2.26778125,1.94571875 C2.26778125,1.03859375 2.93340625,0.286625 3.8025625,0.14753125 C3.84975,0.13996875 3.851875,0.0750625 3.8053125,0.0643125 C3.590125,0.01484375 3.36159375,0.00075 3.12428125,0.0330625 C2.18684375,0.16075 1.46221875,0.972 1.44896875,1.918 C1.433875,2.9981875 2.3046875,3.87775 3.37975,3.87775 C3.52609375,3.87775 3.6681875,3.86065625 3.8049375,3.8291875 C3.85146875,3.8185 3.849125,3.7534375 3.802,3.745875 C2.9331875,3.606875 2.26778125,2.856375 2.26778125,1.94571875 Z" id="Path"></path>
                                    <path d="M3.816875,2.43109375 L3.73521875,2.67596875 L3.477125,2.67796875 C3.44371875,2.67825 3.42984375,2.720875 3.45675,2.74071875 L3.664375,2.8940625 L3.5865,3.14015625 C3.5764375,3.17203125 3.61271875,3.198375 3.639875,3.1789375 L3.849875,3.02884375 L4.059875,3.1789375 C4.0870625,3.198375 4.1233125,3.172 4.11325,3.14015625 L4.035375,2.8940625 L4.243,2.74071875 C4.26990625,2.72084375 4.25603125,2.67825 4.222625,2.67796875 L3.96453125,2.67596875 L3.882875,2.43109375 C3.87228125,2.39940625 3.8274375,2.39940625 3.816875,2.43109375 Z" id="Path"></path>
                                    <path d="M5.09271875,2.43109375 L5.0110625,2.67596875 L4.75296875,2.67796875 C4.7195625,2.67825 4.7056875,2.720875 4.73259375,2.74071875 L4.94021875,2.8940625 L4.86234375,3.14015625 C4.85228125,3.17203125 4.8885625,3.198375 4.91571875,3.1789375 L5.12571875,3.02884375 L5.33571875,3.1789375 C5.36290625,3.198375 5.39915625,3.172 5.38909375,3.14015625 L5.31121875,2.8940625 L5.51884375,2.74071875 C5.54575,2.72084375 5.531875,2.67825 5.49846875,2.67796875 L5.240375,2.67596875 L5.15871875,2.43109375 C5.148125,2.39940625 5.1033125,2.39940625 5.09271875,2.43109375 Z" id="Path"></path>
                                    <path d="M4.4605625,0.4621875 L4.37890625,0.7070625 L4.1208125,0.7090625 C4.08740625,0.70934375 4.07353125,0.75196875 4.1004375,0.7718125 L4.3080625,0.92515625 L4.2301875,1.17125 C4.220125,1.203125 4.25640625,1.22946875 4.2835625,1.21003125 L4.4935625,1.0599375 L4.7035625,1.21003125 C4.73075,1.22946875 4.767,1.20309375 4.7569375,1.17125 L4.6790625,0.92515625 L4.8866875,0.7718125 C4.91359375,0.7519375 4.89971875,0.70934375 4.8663125,0.7090625 L4.60821875,0.7070625 L4.5265625,0.4621875 C4.51596875,0.4305 4.471125,0.4305 4.4605625,0.4621875 Z" id="Path"></path>
                                    <path d="M3.4433125,1.2165 L3.36165625,1.461375 L3.1035625,1.463375 C3.07015625,1.46365625 3.05628125,1.50628125 3.0831875,1.526125 L3.2908125,1.67946875 L3.2129375,1.9255625 C3.202875,1.9574375 3.23915625,1.98378125 3.2663125,1.96434375 L3.4763125,1.81425 L3.6863125,1.96434375 C3.7135,1.98378125 3.74975,1.95740625 3.7396875,1.9255625 L3.6618125,1.67946875 L3.8694375,1.526125 C3.89634375,1.50625 3.88246875,1.46365625 3.8490625,1.463375 L3.59096875,1.461375 L3.5093125,1.2165 C3.49871875,1.1848125 3.45390625,1.1848125 3.4433125,1.2165 Z" id="Path"></path>
                                    <path d="M5.4691875,1.2165 L5.38753125,1.461375 L5.1294375,1.463375 C5.09603125,1.46365625 5.08215625,1.50628125 5.1090625,1.526125 L5.3166875,1.67946875 L5.2388125,1.9255625 C5.22875,1.9574375 5.26503125,1.98378125 5.2921875,1.96434375 L5.5021875,1.81425 L5.7121875,1.96434375 C5.739375,1.98378125 5.775625,1.95740625 5.7655625,1.9255625 L5.6876875,1.67946875 L5.8953125,1.526125 C5.92221875,1.50625 5.90834375,1.46365625 5.8749375,1.463375 L5.61684375,1.461375 L5.5351875,1.2165 C5.52459375,1.1848125 5.47975,1.1848125 5.4691875,1.2165 Z" id="Path"></path>
                                </g>
                            </g>
                        </g>
                    </g>
                </g>
            </g>
        </g>
    </g>
</svg>
