<?xml version="1.0" encoding="UTF-8"?>
<svg width="16" height="16" viewBox="0 0 16 16" version="1.1" xmlns="http://www.w3.org/2000/svg">
  <title>
    icon-globe-flag
  </title>
  <g fill-rule="nonzero" fill="none">
    <path d="M3.91 12.745c-.323-.12-.604-.34-.81-.632l-.52-.736c-.057-.082-.09-.182-.09-.284L2.465 9.53c-.004-.24.156-.445.374-.483.233-.04.396-.272.37-.526l-.043-.443c-.014-.133-.078-.255-.177-.334l-.328-.263c-.297-.238-.657-.367-1.027-.367H1.42c-.093 0-.185-.008-.276-.024L.39 6.956C.343 7.297.32 7.647.32 8c0 2.815 1.524 5.275 3.795 6.605l.16-1.21c.038-.284-.116-.557-.366-.65zM14.84 10.243l-.046-.06c-.125-.168-.336-.232-.524-.16l-.34.133c-.215.083-.445.112-.672.084l-.1-.012c-.53-.066-.985-.432-1.197-.96-.12-.3-.153-.634-.094-.955l.205-1.124c.057-.304.19-.583.39-.805l.08-.092c.34-.38.83-.558 1.312-.474l.54.093.034.008 1.04.273c-.176-.724-.455-1.408-.82-2.035l-.654-.1-.028-.007-.715-.176c-.22-.055-.43.13-.42.375.003.13-.056.25-.157.323l-.462.327c-.107.076-.245.08-.357.01l-.652-.4c-.18-.112-.272-.34-.224-.56l.146-.676c.05-.225.232-.387.445-.393l.553-.016c.256-.007.46-.235.457-.513l-.004-.5C11.296.903 9.713.344 8 .344c-.474 0-.938.043-1.388.125.273.204.493.495.622.848l.018.05c.056.15.093.31.11.472l.016.15c.035.33-.01.662-.134.965l-.173.427c-.138.34-.368.63-.66.83l-.216.146c-.12.083-.192.23-.185.386l.028.63c.012.263-.193.475-.434.45-.133-.013-.25-.097-.313-.224l-.264-.533c-.05-.103-.14-.18-.243-.21l-.938-.283c-.174-.053-.36-.037-.525.044l-.223.11c-.334.164-.514.56-.432.945.032.152.104.292.206.402l.61.66c.042.045.082.093.12.143l.417.557c.124.165.31.26.505.26L5.66 7.69c.23 0 .445.132.56.348.093.17.246.29.425.332l.426.1c.185.042.343.17.433.348l.206.41c.05.1.13.183.225.236l.967.532c.2.11.314.343.287.583-.017.138-.08.266-.176.358l-.368.352c-.065.062-.115.14-.145.23l-.08.23c-.055.16-.17.288-.315.353l-.392.176c-.213.094-.352.32-.352.57 0 .1-.02.198-.064.286L6.18 15.44c.584.14 1.193.215 1.82.215 3.08 0 5.738-1.808 6.962-4.418l-.018-.688c-.003-.113-.04-.22-.105-.307z" fill="#50A5DC"/>
    <path d="M7.36 12.85c0-.25.14-.476.353-.57l.392-.177c.146-.065.26-.193.316-.353l.08-.232c.03-.087.08-.166.146-.228l.367-.352c.097-.092.16-.22.176-.36.026-.24-.088-.473-.288-.582l-.967-.532c-.096-.053-.174-.135-.226-.237l-.207-.41c-.09-.178-.248-.305-.432-.348l-.426-.1c-.178-.04-.33-.162-.423-.332-.115-.216-.33-.348-.56-.347l-1.138.004c-.196 0-.38-.094-.505-.26L3.6 6.88c-.038-.05-.078-.098-.12-.144l-.61-.66c-.1-.11-.173-.25-.205-.4-.082-.387.098-.782.432-.946l.223-.11c.165-.08.35-.097.525-.044l.938.283c.104.03.192.107.243.21l.265.533c.064.127.18.21.313.224.242.025.447-.187.435-.45l-.03-.63c-.006-.156.065-.303.186-.386l.216-.147c.292-.198.522-.487.66-.828l.174-.427c.123-.303.17-.636.134-.965l-.016-.15c-.017-.162-.054-.32-.11-.473l-.018-.05c-.13-.352-.35-.643-.622-.847C3.37 1.06.838 3.678.39 6.957l.754.132c.09.015.183.023.275.023h.215c.37 0 .73.13 1.027.367l.328.263c.1.08.163.2.177.334l.044.444c.026.255-.137.487-.37.527-.218.038-.378.243-.374.482l.023 1.563c0 .102.033.202.09.284l.52.736c.206.292.487.512.81.632.25.093.403.366.365.65l-.16 1.21c.636.372 1.33.655 2.065.833l1.116-2.302c.043-.09.065-.187.065-.287zM12.12 2.864l-.553.017c-.213.007-.396.17-.445.394l-.146.677c-.048.22.044.448.225.56l.653.4c.112.07.25.066.358-.01l.463-.328c.1-.07.16-.194.156-.324-.01-.243.2-.43.42-.375l.714.178.028.007.653.1c-.527-.902-1.234-1.688-2.072-2.308l.004.5c.002.28-.2.507-.457.514zM15.465 6.193l-1.04-.272-.034-.007-.538-.094c-.483-.085-.973.092-1.312.473l-.08.092c-.2.222-.333.5-.39.804l-.204 1.123c-.06.32-.026.654.095.955.213.528.67.894 1.2.96l.098.012c.227.028.457 0 .672-.084l.34-.132c.188-.073.4-.01.524.16l.045.06c.064.086.1.193.104.305l.018.687c.46-.983.72-2.08.72-3.237 0-.623-.076-1.228-.217-1.807z" fill="#7AC943"/>
    <g fill="#000">
      <path d="M13.904 11.1c-.137-.12-.337-.095-.448.054-.145.196-.303.388-.468.57-.123.136-.12.354.004.487.062.067.143.1.223.1.083 0 .165-.034.228-.103.18-.198.352-.407.51-.622.11-.15.09-.366-.05-.485zM12.206 12.467c-1.205.99-2.666 1.562-4.224 1.657-.176.01-.31.174-.3.364.01.183.15.325.318.325h.018c1.685-.104 3.266-.725 4.573-1.796.14-.115.17-.33.062-.483-.106-.152-.306-.182-.446-.067z"/>
      <path d="M15.774 6.105c-.182-.748-.47-1.465-.86-2.13-.552-.947-1.28-1.758-2.16-2.41C11.37.54 9.725 0 8 0c-.483 0-.967.044-1.44.13C5.217.374 3.95.964 2.897 1.838 1.348 3.122.346 4.922.075 6.908.025 7.267 0 7.637 0 8c0 1.424.38 2.823 1.096 4.044.694 1.18 1.685 2.172 2.867 2.864.67.393 1.394.684 2.148.867.617.15 1.253.225 1.89.225 1.547 0 3.048-.442 4.34-1.28 1.264-.817 2.27-1.968 2.906-3.327.5-1.067.754-2.208.754-3.393 0-.64-.076-1.277-.226-1.895zm-1.824-2.41l-.63-.158c-.202-.05-.41.003-.57.146-.16.143-.247.353-.24.577 0 .01-.004.02-.01.024l-.464.327c-.008.006-.017.007-.026.002l-.65-.402c-.06-.036-.09-.11-.074-.18l.147-.678c.015-.072.074-.124.143-.126l.553-.017c.37-.012.677-.305.75-.684.4.35.757.74 1.07 1.168zM.637 8c0-.214.01-.43.03-.645l.426.074c.107.018.217.028.326.028h.215c.3 0 .597.106.837.3l.328.262c.028.022.046.056.05.094l.044.444c.007.072-.04.137-.105.15-.373.063-.65.42-.643.827l.023 1.563c.003.178.057.347.157.488l.52.736c.244.348.576.607.958.75.105.038.17.154.155.274l-.093.703C1.864 12.695.637 10.42.637 8zm3.375 4.42c-.262-.1-.49-.277-.66-.516l-.518-.737c-.017-.023-.026-.05-.026-.08l-.023-1.563c0-.067.044-.126.105-.136.4-.07.682-.467.638-.904l-.044-.444c-.023-.228-.134-.438-.304-.574l-.328-.263c-.35-.28-.782-.435-1.217-.435H1.42c-.076 0-.152-.006-.226-.02L.76 6.673C1.067 5 1.956 3.487 3.284 2.386 4.222 1.61 5.34 1.076 6.53.836c.18.162.32.37.408.608l.018.05c.045.124.075.253.09.386l.016.15c.028.268-.01.54-.11.786l-.173.427c-.115.28-.3.514-.54.676l-.215.146c-.22.15-.347.415-.334.695l.03.632c0 .032-.012.054-.024.066-.012.012-.033.026-.062.023-.027-.002-.05-.018-.062-.043l-.265-.533c-.092-.185-.252-.323-.44-.38l-.936-.282c-.245-.075-.51-.053-.742.062l-.223.11c-.47.23-.727.793-.61 1.337.045.216.146.413.29.57l.61.658c.034.037.067.076.097.117l.418.557c.184.246.458.387.75.387h.003l1.138-.004h.002c.116 0 .225.067.284.176.136.253.367.434.632.495l.426.1c.094.02.174.086.22.177l.205.408c.082.164.207.295.36.38l.968.53c.08.045.125.14.114.234-.006.056-.03.107-.07.144l-.367.352c-.104.1-.184.225-.233.365l-.08.232c-.024.07-.075.126-.14.155l-.39.175c-.334.15-.55.5-.55.89 0 .043-.01.087-.028.126l-1 2.065c-.54-.15-1.06-.36-1.55-.628l.127-.968c.06-.447-.183-.878-.578-1.025zM8 15.31c-.45 0-.898-.04-1.34-.12l.918-1.894c.067-.137.102-.292.102-.447 0-.11.06-.21.155-.253l.392-.175c.227-.102.406-.303.492-.55l.08-.232c.01-.035.03-.067.057-.092l.368-.352c.155-.148.254-.352.28-.574.044-.383-.14-.76-.458-.934l-.968-.532c-.04-.02-.07-.054-.09-.094l-.207-.41c-.135-.266-.37-.456-.646-.52l-.426-.1c-.09-.02-.167-.08-.214-.168-.172-.32-.492-.518-.834-.518H5.66l-1.14.004c-.1 0-.192-.048-.255-.132l-.418-.557c-.044-.06-.092-.116-.142-.17l-.61-.66c-.06-.064-.1-.145-.12-.234-.048-.226.06-.46.253-.554l.224-.11c.096-.048.206-.057.308-.026l.937.283c.02.005.038.02.048.04l.266.534c.114.228.325.38.563.404.207.02.413-.056.563-.212.15-.155.23-.374.22-.6l-.03-.63c0-.03.014-.06.038-.076l.216-.147c.347-.237.618-.576.783-.983l.173-.427c.145-.358.2-.753.16-1.142l-.017-.15c-.022-.192-.065-.38-.13-.56l-.02-.05c-.06-.166-.14-.323-.234-.467C7.53.7 7.766.69 8 .69c1.54 0 3.008.464 4.256 1.345l.002.32c0 .088-.065.162-.147.165l-.55.016c-.36.01-.666.282-.748.66l-.147.676c-.08.366.076.75.378.937l.652.4c.102.064.215.095.328.095.126 0 .252-.04.362-.117l.463-.327c.193-.135.307-.374.3-.623 0-.004 0-.014.008-.022.01-.008.018-.006.022-.005l.714.177c.018.005.036.008.055.01l.505.08c.22.395.4.81.543 1.238l-.494-.13c-.018-.004-.038-.01-.06-.012l-.538-.094c-.585-.103-1.18.112-1.592.574l-.08.092c-.24.27-.404.608-.47.976l-.207 1.124c-.072.392-.032.793.115 1.16.257.64.814 1.085 1.454 1.164l.1.013c.274.034.556-.002.815-.102l.34-.13c.06-.025.13-.004.17.05l.044.06c.022.028.034.063.035.1l.016.598C13.42 13.683 10.824 15.31 8 15.31zm7.08-5.294l-.038-.05c-.153-.204-.38-.316-.614-.316-.09 0-.18.016-.266.05l-.34.13c-.168.067-.35.09-.527.068l-.1-.013c-.415-.05-.776-.34-.942-.754-.095-.237-.12-.496-.075-.75l.206-1.124c.044-.238.15-.457.305-.632l.08-.092c.266-.3.652-.44 1.03-.372l.54.094c.004 0 .008 0 .01.002l.852.223c.107.497.16 1.008.16 1.52 0 .69-.094 1.365-.283 2.016z"/>
    </g>
  </g>
</svg>
