<svg xmlns="http://www.w3.org/2000/svg" width="24" height="24"  xmlns:v="https://vecta.io/nano"><path d="M17.467 16.556H6.533v-1.822h10.934zm0-3.645H6.533v-1.822h10.934zm0-3.645H6.533V7.445h10.934zM3.8 21.112l1.367-1.367 1.367 1.367L7.9 19.745l1.367 1.367 1.367-1.367L12 21.112l1.367-1.367 1.367 1.367 1.366-1.367 1.367 1.367 1.367-1.367 1.366 1.367V2.889l-1.366 1.367-1.367-1.367L16.1 4.256l-1.366-1.367-1.367 1.367L12 2.889l-1.367 1.367-1.366-1.367L7.9 4.256 6.533 2.889 5.167 4.256 3.8 2.889z" fill="#d9261c"/></svg>