<svg xmlns="http://www.w3.org/2000/svg" width="24" height="24"  xmlns:v="https://vecta.io/nano"><path d="M9 4v1.38a7.082 7.082 0 0 0-2.61-.5 6.973 6.973 0 0 0-4.95 2.05l3.33 3.33h1.11v1.11a4.675 4.675 0 0 0 3.11 1.36V15H6v3a2.006 2.006 0 0 0 2 2h10a3 3 0 0 0 3-3V4zm-1.11 6.41V8.26H5.61L4.57 7.22a5.07 5.07 0 0 1 1.82-.34 4.994 4.994 0 0 1 3.54 1.46l1.41 1.41-.2.2a2.7 2.7 0 0 1-1.92.8 2.769 2.769 0 0 1-1.33-.34zM19 17a1 1 0 0 1-2 0v-2h-6v-2.59a4.659 4.659 0 0 0 1.56-1.03l.2-.2L15.59 14H17v-1.41l-6-5.97V6h8z" fill="#d9261c"/></svg>