<svg xmlns="http://www.w3.org/2000/svg" width="45" height="42.75" viewBox="0 0 45 42.75"><defs><linearGradient id="a" x1="0.5" x2="0.5" y2="1" gradientUnits="objectBoundingBox"><stop offset="0" stop-color="#ff746c"/><stop offset="1" stop-color="#ffada8"/></linearGradient></defs><path d="M42.5,11h-9V6.5A4.484,4.484,0,0,0,29,2H20a4.484,4.484,0,0,0-4.5,4.5V11h-9a4.465,4.465,0,0,0-4.478,4.5L2,40.25a4.484,4.484,0,0,0,4.5,4.5h36a4.484,4.484,0,0,0,4.5-4.5V15.5A4.484,4.484,0,0,0,42.5,11ZM29,11H20V6.5h9Z" transform="translate(-2 -2)" fill="url(#a)"/></svg>
