<svg xmlns="http://www.w3.org/2000/svg" width="41.732" height="41.732" viewBox="0 0 41.732 41.732"><defs><linearGradient id="a" x1="0.5" x2="0.5" y2="1" gradientUnits="objectBoundingBox"><stop offset="0" stop-color="#ff746c"/><stop offset="1" stop-color="#ffada8"/></linearGradient></defs><path d="M2885.731,852.5V856.9h-6.589v6.589h-4.392V856.9h-6.591V852.5h6.591v-6.589h4.392V852.5Zm-6.589,30.751h-30.751V852.5h13.181V848.11h-13.181A4.406,4.406,0,0,0,2844,852.5v30.751a4.407,4.407,0,0,0,4.392,4.392h30.751a4.408,4.408,0,0,0,4.395-4.392v-13.18h-4.395Zm-8.786-13.18v8.788h4.394v-8.788Zm-8.784,8.788h4.392V861.288h-4.392Zm-4.395,0v-13.18h-4.394v13.18Z" transform="translate(-2843.999 -845.913)" fill="url(#a)"/></svg>
