<svg xmlns="http://www.w3.org/2000/svg" width="1167" height="544.573" viewBox="0 0 1167 544.573"><defs><filter id="a" x="0" y="152.936" width="1167" height="135.637" filterUnits="userSpaceOnUse"><feOffset dy="3" input="SourceAlpha"/><feGaussianBlur stdDeviation="6" result="b"/><feFlood flood-opacity="0.161"/><feComposite operator="in" in2="b"/><feComposite in="SourceGraphic"/></filter><filter id="c" x="0" y="280.936" width="1167" height="135.637" filterUnits="userSpaceOnUse"><feOffset dy="3" input="SourceAlpha"/><feGaussianBlur stdDeviation="6" result="d"/><feFlood flood-opacity="0.161"/><feComposite operator="in" in2="d"/><feComposite in="SourceGraphic"/></filter><filter id="e" x="0" y="408.936" width="1167" height="135.637" filterUnits="userSpaceOnUse"><feOffset dy="3" input="SourceAlpha"/><feGaussianBlur stdDeviation="6" result="f"/><feFlood flood-opacity="0.161"/><feComposite operator="in" in2="f"/><feComposite in="SourceGraphic"/></filter><linearGradient id="g" x1="0.5" x2="0.5" y2="1" gradientUnits="objectBoundingBox"><stop offset="0" stop-color="#ff746c"/><stop offset="1" stop-color="#ffada8"/></linearGradient><linearGradient id="k" x1="0.5" x2="0.5" y2="1" gradientUnits="objectBoundingBox"><stop offset="0" stop-color="#fb2"/><stop offset="1" stop-color="#f4c835"/></linearGradient><linearGradient id="l" x1="0.5" x2="0.5" y2="1" gradientUnits="objectBoundingBox"><stop offset="0" stop-color="#27af50"/><stop offset="1" stop-color="#55cf92"/></linearGradient></defs><g transform="translate(-89 -2804)"><g transform="matrix(1, 0, 0, 1, 89, 2804)" filter="url(#a)"><rect width="1131" height="99.637" rx="6" transform="translate(18 167.94)" fill="#fff"/></g><g transform="matrix(1, 0, 0, 1, 89, 2804)" filter="url(#c)"><rect width="1131" height="99.637" rx="6" transform="translate(18 295.94)" fill="#fff"/></g><g transform="matrix(1, 0, 0, 1, 89, 2804)" filter="url(#e)"><rect width="1131" height="99.637" rx="6" transform="translate(18 423.94)" fill="#fff"/></g><g transform="translate(107 2804)" fill="#eaf0f0" stroke="#eaf0f0" stroke-width="1"><rect width="213" height="136" stroke="none"/><rect x="0.5" y="0.5" width="212" height="135" fill="none"/></g><g transform="translate(350 2804)" fill="#f9f9f9" stroke="#eaf0f0" stroke-width="1"><rect width="888" height="68" stroke="none"/><rect x="0.5" y="0.5" width="887" height="67" fill="none"/></g><rect width="213" height="68" transform="translate(107 2872)" fill="url(#g)"/><text transform="translate(182.302 2844.872)" fill="#1c1c1c" font-size="25" font-family="Poppins-Medium, Poppins" font-weight="500"><tspan x="0" y="0">Inbox</tspan></text><g transform="translate(133.223 2825.127)"><path d="M180.233,70.62l-2.446-6.7a2.548,2.548,0,0,0-2.271-1.908H162.965a2.531,2.531,0,0,0-2.274,1.908l-2.446,6.663a1.974,1.974,0,0,0-.124.635v9.006c0,1.573.938,2.878,2.125,2.878h18.01c1.163,0,2.125-1.27,2.125-2.878V71.255a2.136,2.136,0,0,0-.148-.635m-6.693-.8c-.5,0-.914.469-1.039,1.139-.024.134-.593,3.716-3.284,3.716-2.623,0-3.213-3.315-3.288-3.716-.1-.67-.518-1.139-1.038-1.139h-4l1.705-4.62c.075-.165.224-.334.372-.334h12.552c.145,0,.293.1.369.334l1.68,4.62Z" transform="translate(-158.121 -62.015)" fill="#1c1c1c"/></g><text transform="translate(186.224 2915.272)" fill="#fff" font-size="25" font-family="Poppins-Medium, Poppins" font-weight="500"><tspan x="0" y="0">MOC List</tspan></text><rect width="9.758" height="10.221" transform="translate(143.353 2896.986)" fill="#fff"/><rect width="9.758" height="10.221" transform="translate(135.353 2905.986)" fill="#fff"/><text transform="translate(375.381 2838.127)" fill="#1c1c1c" font-size="22" font-family="Poppins-SemiBold, Poppins" font-weight="600"><tspan x="0" y="0">MOC Details</tspan></text><text transform="translate(375 2856)" fill="#314269" font-size="12" font-family="Poppins-Medium, Poppins" font-weight="500"><tspan x="0" y="0">Details of MOC </tspan></text><rect width="147" height="48" rx="6" transform="translate(1078 2814)" fill="#ededed"/><path d="M3637.23,142.559l6.293-6.293a.922.922,0,0,0,0-1.3l-.552-.551a.923.923,0,0,0-1.3,0l-6.291,6.291-6.293-6.291a.921.921,0,0,0-1.3,0l-.552.551a.922.922,0,0,0,0,1.3l6.293,6.293-6.293,6.291a.926.926,0,0,0,0,1.3l.552.551a.92.92,0,0,0,1.3,0l6.293-6.293,6.292,6.293a.923.923,0,0,0,1.3,0l.551-.551a.923.923,0,0,0,0-1.3Z" transform="translate(-2523.438 2695.566)"/><text transform="translate(1139.381 2844.127)" fill="#1c1c1c" font-size="18" font-family="Poppins-SemiBold, Poppins" font-weight="600"><tspan x="0" y="0">Close</tspan></text><text transform="translate(950.381 2911.127)" fill="#1c1c1c" font-size="18" font-family="Poppins-SemiBold, Poppins" font-weight="600"><tspan x="0" y="0">Manual Task</tspan></text><text transform="translate(222.258 3017.447)" fill="#231f20" font-size="17" font-family="Poppins-Medium, Poppins" font-weight="500"><tspan x="0" y="0">Department Approve/Reject</tspan></text><text transform="translate(222.258 3145.447)" fill="#231f20" font-size="17" font-family="Poppins-Medium, Poppins" font-weight="500"><tspan x="0" y="0">Department Approve/Reject</tspan></text><text transform="translate(222.258 3273.447)" fill="#231f20" font-size="17" font-family="Poppins-Medium, Poppins" font-weight="500"><tspan x="0" y="0">Department Approve/Reject</tspan></text><text transform="translate(222.258 3040.431)" fill="#231f20" font-size="15" font-family="Poppins-Regular, Poppins"><tspan x="0" y="0">Abhijit Damle</tspan></text><text transform="translate(222.258 3168.431)" fill="#231f20" font-size="15" font-family="Poppins-Regular, Poppins"><tspan x="0" y="0">Jay Patel</tspan></text><text transform="translate(222.258 3296.431)" fill="#231f20" font-size="15" font-family="Poppins-Regular, Poppins"><tspan x="0" y="0">Rajesh yadav</tspan></text><ellipse cx="29.904" cy="29.904" rx="29.904" ry="29.904" transform="translate(132.707 2992.082)" fill="url(#g)"/><ellipse cx="29.904" cy="29.904" rx="29.904" ry="29.904" transform="translate(132.707 3120.082)" fill="url(#g)"/><ellipse cx="29.904" cy="29.904" rx="29.904" ry="29.904" transform="translate(132.707 3248.082)" fill="url(#g)"/><rect width="103.472" height="22.912" transform="translate(1114.486 2985.358)" fill="url(#k)"/><rect width="103.472" height="22.912" transform="translate(1114.486 3113.358)" fill="url(#l)"/><rect width="103.472" height="22.912" transform="translate(1114.486 3241.358)" fill="url(#g)"/><text transform="translate(1124.877 3002.004)" fill="#fff" font-size="13" font-family="Poppins-Medium, Poppins" font-weight="500"><tspan x="0" y="0">IN PROGRESS</tspan></text><text transform="translate(1127.877 3130.004)" fill="#fff" font-size="13" font-family="Poppins-Medium, Poppins" font-weight="500"><tspan x="0" y="0">Completed</tspan></text><text transform="translate(1139.877 3258.004)" fill="#fff" font-size="13" font-family="Poppins-Medium, Poppins" font-weight="500"><tspan x="0" y="0">Initiated</tspan></text><text transform="translate(1005 3030.756)" fill="#231f20" font-size="17" font-family="Poppins-Medium, Poppins" font-weight="500"><tspan x="0" y="0">Assigned On : 14 Jul,2020</tspan></text><text transform="translate(994 3158.756)" fill="#231f20" font-size="17" font-family="Poppins-Medium, Poppins" font-weight="500"><tspan x="0" y="0">Assigned On : 10 May,2020</tspan></text><text transform="translate(1001 3286.756)" fill="#231f20" font-size="17" font-family="Poppins-Medium, Poppins" font-weight="500"><tspan x="0" y="0">Assigned On : 18 july,2020</tspan></text><text transform="translate(1051 3055.33)" fill="#231f20" font-size="17" font-family="Poppins-Medium, Poppins" font-weight="500"><tspan x="0" y="0">Due On : 16 Jul,2020</tspan></text><text transform="translate(977 3183.33)" fill="#231f20" font-size="17" font-family="Poppins-Medium, Poppins" font-weight="500"><tspan x="0" y="0">Completed On : 16 May,2020</tspan></text><text transform="translate(1047 3311.33)" fill="#231f20" font-size="17" font-family="Poppins-Medium, Poppins" font-weight="500"><tspan x="0" y="0">Due On : 20 Jul,2020</tspan></text><line x2="229" transform="translate(950.5 2924.5)" fill="none" stroke="#c4c4c4" stroke-width="1"/><path d="M17019.881,3052.627l10.381,10.381,10.381-10.381" transform="translate(-15866 -152)" fill="none" stroke="#0f0f0f" stroke-width="2"/><g transform="translate(1205.127 2891.127)"><path d="M0,0H37.747V37.747H0Z" fill="none"/><path d="M25.463,7.7a12.584,12.584,0,1,0,3.271,12.032H25.463A9.432,9.432,0,1,1,16.576,7.146a9.3,9.3,0,0,1,6.637,2.8l-5.064,5.064H29.159V4Z" transform="translate(2.297 2.291)"/></g><g transform="translate(150.637 3006.786)"><path d="M1245.094-519.352a5.59,5.59,0,0,0,5.584-5.605,5.59,5.59,0,0,0-5.584-5.606,5.608,5.608,0,0,0-5.606,5.606A5.609,5.609,0,0,0,1245.094-519.352Z" transform="translate(-1232.761 530.563)" fill="#fff"/><path d="M1232.2-484.784c-4.1,0-12.333,2.062-12.333,6.166v5.046h24.665v-5.046C1244.534-482.722,1236.305-484.784,1232.2-484.784Z" transform="translate(-1219.869 500.48)" fill="#fff"/></g><g transform="translate(150.637 3134.786)"><path d="M1245.094-519.352a5.59,5.59,0,0,0,5.584-5.605,5.59,5.59,0,0,0-5.584-5.606,5.608,5.608,0,0,0-5.606,5.606A5.609,5.609,0,0,0,1245.094-519.352Z" transform="translate(-1232.761 530.563)" fill="#fff"/><path d="M1232.2-484.784c-4.1,0-12.333,2.062-12.333,6.166v5.046h24.665v-5.046C1244.534-482.722,1236.305-484.784,1232.2-484.784Z" transform="translate(-1219.869 500.48)" fill="#fff"/></g><g transform="translate(150.637 3262.786)"><path d="M1245.094-519.352a5.59,5.59,0,0,0,5.584-5.605,5.59,5.59,0,0,0-5.584-5.606,5.608,5.608,0,0,0-5.606,5.606A5.609,5.609,0,0,0,1245.094-519.352Z" transform="translate(-1232.761 530.563)" fill="#fff"/><path d="M1232.2-484.784c-4.1,0-12.333,2.062-12.333,6.166v5.046h24.665v-5.046C1244.534-482.722,1236.305-484.784,1232.2-484.784Z" transform="translate(-1219.869 500.48)" fill="#fff"/></g></g></svg>
