<svg xmlns="http://www.w3.org/2000/svg" width="545.36" height="415.076" viewBox="0 0 545.36 415.076">
  <defs>
    <filter id="Path_193" x="391.887" y="181.84" width="64.944" height="64.944" filterUnits="userSpaceOnUse">
      <feOffset dy="3" input="SourceAlpha"/>
      <feGaussianBlur stdDeviation="3" result="blur"/>
      <feFlood flood-opacity="0.161"/>
      <feComposite operator="in" in2="blur"/>
      <feComposite in="SourceGraphic"/>
    </filter>
    <linearGradient id="linear-gradient" x1="0.5" x2="0.5" y2="1" gradientUnits="objectBoundingBox">
      <stop offset="0" stop-color="#d9261c"/>
      <stop offset="1" stop-color="#ff7b74"/>
    </linearGradient>
    <filter id="Path_195" x="480.197" y="181.84" width="64.945" height="64.944" filterUnits="userSpaceOnUse">
      <feOffset dy="3" input="SourceAlpha"/>
      <feGaussianBlur stdDeviation="3" result="blur-2"/>
      <feFlood flood-opacity="0.161"/>
      <feComposite operator="in" in2="blur-2"/>
      <feComposite in="SourceGraphic"/>
    </filter>
    <linearGradient id="linear-gradient-2" x1="0.5" x2="0.5" y2="1" gradientUnits="objectBoundingBox">
      <stop offset="0" stop-color="#27af50"/>
      <stop offset="1" stop-color="#55cf92"/>
    </linearGradient>
    <filter id="Ellipse_35" x="286.106" y="269.418" width="133.746" height="133.746" filterUnits="userSpaceOnUse">
      <feOffset dy="3" input="SourceAlpha"/>
      <feGaussianBlur stdDeviation="3" result="blur-3"/>
      <feFlood flood-opacity="0.161"/>
      <feComposite operator="in" in2="blur-3"/>
      <feComposite in="SourceGraphic"/>
    </filter>
    <filter id="Path_227" x="411.615" y="269.418" width="133.746" height="133.746" filterUnits="userSpaceOnUse">
      <feOffset dy="3" input="SourceAlpha"/>
      <feGaussianBlur stdDeviation="3" result="blur-4"/>
      <feFlood flood-opacity="0.161"/>
      <feComposite operator="in" in2="blur-4"/>
      <feComposite in="SourceGraphic"/>
    </filter>
    <clipPath id="clip-path">
      <rect id="Rectangle_166" data-name="Rectangle 166" width="111.551" height="157.332" fill="none"/>
    </clipPath>
    <linearGradient id="linear-gradient-3" x1="0.5" x2="0.5" y2="1" gradientUnits="objectBoundingBox">
      <stop offset="0" stop-color="#ff746c"/>
      <stop offset="1" stop-color="#ffada8"/>
    </linearGradient>
    <clipPath id="clip-path-2">
      <rect id="Rectangle_167" data-name="Rectangle 167" width="111.552" height="157.565" fill="none"/>
    </clipPath>
    <filter id="Path_215" x="158.559" y="264.33" width="64.944" height="64.944" filterUnits="userSpaceOnUse">
      <feOffset dy="3" input="SourceAlpha"/>
      <feGaussianBlur stdDeviation="3" result="blur-5"/>
      <feFlood flood-opacity="0.161"/>
      <feComposite operator="in" in2="blur-5"/>
      <feComposite in="SourceGraphic"/>
    </filter>
    <filter id="Path_225" x="158.559" y="343.16" width="64.944" height="64.944" filterUnits="userSpaceOnUse">
      <feOffset dy="3" input="SourceAlpha"/>
      <feGaussianBlur stdDeviation="3" result="blur-6"/>
      <feFlood flood-opacity="0.161"/>
      <feComposite operator="in" in2="blur-6"/>
      <feComposite in="SourceGraphic"/>
    </filter>
  </defs>
  <g id="Group_489" data-name="Group 489" transform="translate(-1033 -868.644)">
    <g transform="matrix(1, 0, 0, 1, 1033, 868.64)" filter="url(#Path_193)">
      <path id="Path_193-2" data-name="Path 193" d="M1394.26,1072.287a23.472,23.472,0,1,1,23.472-23.471A23.5,23.5,0,0,1,1394.26,1072.287Z" transform="translate(-969.9 -837.5)" fill="#fff"/>
    </g>
    <path id="Path_194" data-name="Path 194" d="M1414.774,1048.413a20.917,20.917,0,1,1-20.916-20.917A20.917,20.917,0,0,1,1414.774,1048.413Z" transform="translate(63.502 31.542)" fill="url(#linear-gradient)"/>
    <g transform="matrix(1, 0, 0, 1, 1033, 868.64)" filter="url(#Path_195)">
      <path id="Path_195-2" data-name="Path 195" d="M1468.671,1072.287a23.472,23.472,0,1,1,23.472-23.471A23.5,23.5,0,0,1,1468.671,1072.287Z" transform="translate(-956 -837.5)" fill="#fff"/>
    </g>
    <path id="Path_196" data-name="Path 196" d="M1489.183,1048.413a20.915,20.915,0,1,1-20.915-20.917A20.915,20.915,0,0,1,1489.183,1048.413Z" transform="translate(77.403 31.542)" fill="url(#linear-gradient-2)"/>
    <g transform="matrix(1, 0, 0, 1, 1033, 868.64)" filter="url(#Ellipse_35)">
      <circle id="Ellipse_35-2" data-name="Ellipse 35" cx="57.873" cy="57.873" r="57.873" transform="translate(295.11 275.42)" fill="#fff"/>
    </g>
    <path id="Path_197" data-name="Path 197" d="M1338.871,1210.043a53.693,53.693,0,1,1,37.965-15.726A53.337,53.337,0,0,1,1338.871,1210.043Z" transform="translate(47.109 45.584)" fill="#314269"/>
    <g transform="matrix(1, 0, 0, 1, 1033, 868.64)" filter="url(#Path_227)">
      <path id="Path_227-2" data-name="Path 227" d="M57.873,0A57.873,57.873,0,1,1,0,57.873,57.873,57.873,0,0,1,57.873,0Z" transform="translate(420.61 275.42)" fill="#fff"/>
    </g>
    <path id="Path_198" data-name="Path 198" d="M1444.624,1210.043a53.691,53.691,0,1,1,37.964-15.726A53.338,53.338,0,0,1,1444.624,1210.043Z" transform="translate(66.864 45.584)" fill="#314269"/>
    <g id="Group_475" data-name="Group 475" transform="translate(1033 954.021)">
      <path id="Path_199" data-name="Path 199" d="M1449.016,1071.653v8.756H1076.752v-8.193h2.681l-3.229-4.423-3.229,4.423h2.681v9.289h374.457v-9.853Z" transform="translate(-1025.533 -914.951)"/>
      <path id="Path_200" data-name="Path 200" d="M1130.232,1090.739h-86.745a8.807,8.807,0,0,1-8.807-8.807V949.391a8.806,8.806,0,0,1,8.807-8.807h86.745a8.807,8.807,0,0,1,8.807,8.807v132.54a8.807,8.807,0,0,1-8.807,8.807" transform="translate(-1032.686 -938.714)" fill="url(#linear-gradient-3)"/>
      <path id="Path_201" data-name="Path 201" d="M1123.629,1075.794h-80.75a8.2,8.2,0,0,1-8.2-8.2V992.378a8.2,8.2,0,0,1,8.2-8.2h80.75a8.2,8.2,0,0,1,8.2,8.2V1067.6a8.2,8.2,0,0,1-8.2,8.2" transform="translate(-1029.08 -927.17)" fill="#fff"/>
    </g>
    <text id="Initiate_Request" data-name="Initiate Request" transform="translate(1087.212 986.313)" fill="#fff" font-size="8" font-family="Poppins-Medium, Poppins" font-weight="500"><tspan x="-31.356" y="0">Initiate Request</tspan></text>
    <text id="_From_any_location_" data-name="(From any location)" transform="translate(1087.212 995.145)" fill="#fff" font-size="6" font-family="Poppins-Medium, Poppins" font-weight="500"><tspan x="-30.276" y="0">(From any location)</tspan></text>
    <text id="Initiate_of_the_Moc_request_by_the_initiator_by_fillingout_requireddetails_fields." data-name="Initiate of the Moc
request by the
initiator by fillingout 
requireddetails/
fields." transform="translate(1087.131 1039.084)" font-size="8" font-family="Poppins-Medium, Poppins" font-weight="500"><tspan x="-35.952" y="0">Initiate of the Moc</tspan><tspan x="-29.076" y="10">request by the</tspan><tspan x="-41.196" y="20">initiator by fillingout </tspan><tspan x="-32.768" y="30">requireddetails/</tspan><tspan x="-11.72" y="40">fields.</tspan></text>
    <g id="Group_478" data-name="Group 478" transform="translate(1036.78 1129.602)">
      <path id="Path_202" data-name="Path 202" d="M1131.737,1237.108h-86.746a8.807,8.807,0,0,1-8.806-8.806V1095.76a8.806,8.806,0,0,1,8.806-8.807h86.746a8.806,8.806,0,0,1,8.806,8.807V1228.3a8.807,8.807,0,0,1-8.806,8.806" transform="translate(-1036.185 -1086.953)" fill="url(#linear-gradient-2)"/>
      <path id="Path_203" data-name="Path 203" d="M1122.649,1219.6h-78.5a7.969,7.969,0,0,1-7.969-7.969v-73.117a7.968,7.968,0,0,1,7.969-7.969h78.5a7.968,7.968,0,0,1,7.968,7.969v73.117a7.969,7.969,0,0,1-7.968,7.969" transform="translate(-1031.222 -1074.129)" fill="#fff"/>
    </g>
    <text id="Closing_Request" data-name="Closing Request" transform="translate(1088.814 1164.323)" fill="#fff" font-size="9" font-family="Poppins-Medium, Poppins" font-weight="500"><tspan x="-36.715" y="0">Closing Request</tspan></text>
    <text id="The_DMS_will_store_documents_securely_the_request_MOC_will_be_Complete" data-name="The DMS will store
documents securely
&amp; the request MOC
will be Complete" transform="translate(1089.864 1217.131)" font-size="8" font-family="Poppins-Medium, Poppins" font-weight="500"><tspan x="-35.868" y="0">The DMS will store</tspan><tspan x="-41.132" y="10">documents securely</tspan><tspan x="-37.876" y="20">&amp; the request MOC</tspan><tspan x="-33.72" y="30">will be Complete</tspan></text>
    <g id="Group_482" data-name="Group 482" transform="translate(1307.694 955.416)">
      <path id="Path_204" data-name="Path 204" d="M1361.751,1092.094h-86.745a8.807,8.807,0,0,1-8.807-8.807V950.747a8.808,8.808,0,0,1,8.807-8.807h86.745a8.807,8.807,0,0,1,8.807,8.807v132.54a8.806,8.806,0,0,1-8.807,8.807" transform="translate(-1264.132 -939.856)" fill="url(#linear-gradient-3)"/>
      <path id="Path_205" data-name="Path 205" d="M1355.183,1077.186H1274.4a8.2,8.2,0,0,1-8.2-8.2V993.737a8.2,8.2,0,0,1,8.2-8.2h80.782a8.2,8.2,0,0,1,8.2,8.2v75.247a8.2,8.2,0,0,1-8.2,8.2" transform="translate(-1260.545 -928.329)" fill="#fff"/>
    </g>
    <text id="Document_Request_by_Departments" data-name="Document Request 
by Departments" transform="translate(1361.766 985.245)" fill="#fff" font-size="8" font-family="Poppins-Medium, Poppins" font-weight="500"><tspan x="-39.568" y="0">Document Request </tspan><tspan x="-32.676" y="10">by Departments</tspan></text>
    <text id="Department_requesting_support_documents_required_for_approvals_from_the_initiator._Ex:_SOP_Validation_training" data-name="Department
requesting support
documents required
for approvals from
the initiator.
Ex: SOP,Validation 
&amp; training" transform="translate(1362.182 1030.483)" font-size="8" font-family="Poppins-Medium, Poppins" font-weight="500"><tspan x="-24.46" y="0">Department</tspan><tspan x="-38.54" y="10">requesting support</tspan><tspan x="-41.228" y="20">documents required</tspan><tspan x="-37.5" y="30">for approvals from</tspan><tspan x="-24.096" y="40">the initiator.</tspan><tspan x="-36.7" y="50">Ex: SOP,Validation </tspan><tspan x="-19.836" y="60">&amp; training</tspan></text>
    <g id="Group_485" data-name="Group 485" transform="translate(1174.69 955.891)">
      <path id="Path_206" data-name="Path 206" d="M1247.94,1090.739h-86.746a8.807,8.807,0,0,1-8.806-8.807V949.391a8.806,8.806,0,0,1,8.806-8.807h86.746a8.806,8.806,0,0,1,8.806,8.807v132.54a8.807,8.807,0,0,1-8.806,8.807" transform="translate(-1152.388 -940.584)" fill="url(#linear-gradient-2)"/>
      <path id="Path_207" data-name="Path 207" d="M1240.912,1075.356h-80.366a8.159,8.159,0,0,1-8.158-8.159V992.339a8.159,8.159,0,0,1,8.158-8.159h80.366a8.159,8.159,0,0,1,8.158,8.159V1067.2a8.159,8.159,0,0,1-8.158,8.159" transform="translate(-1148.55 -928.821)" fill="#fff"/>
    </g>
    <text id="Multi_Level_Apptoval" data-name="Multi Level
Apptoval" transform="translate(1227.405 985.313)" fill="#fff" font-size="8" font-family="Poppins-Medium, Poppins" font-weight="500"><tspan x="-20.836" y="0">Multi Level</tspan><tspan x="-18.324" y="10">Apptoval</tspan></text>
    <text id="Management_of_Change_MOC_" data-name="Management of Change (MOC)" transform="translate(1086.823 895.644)" fill="#1c1c1c" font-size="26" font-family="Poppins-SemiBold, Poppins" font-weight="600"><tspan x="0" y="0">Management of Change (MOC)</tspan></text>
    <text id="Process_Flow_of_MOC" data-name="Process Flow of MOC" transform="translate(1221.346 923.246)" fill="#1c1c1c" font-size="15" font-family="Poppins-Regular, Poppins"><tspan x="0" y="0">Process Flow of MOC</tspan></text>
    <text id="If_Rejected" data-name="If Rejected" transform="translate(1453.669 1042.55)" font-size="7" font-family="Poppins-Medium, Poppins" font-weight="500"><tspan x="-18.386" y="0">If Rejected</tspan></text>
    <text id="If_Rejected-2" data-name="If Rejected" transform="translate(1257.085 1275.888)" font-size="7" font-family="Poppins-Medium, Poppins" font-weight="500"><tspan x="-18.386" y="0">If Rejected</tspan></text>
    <text id="If_Approved" data-name="If Approved" transform="translate(1539.151 1042.497)" font-size="7" font-family="Poppins-Medium, Poppins" font-weight="500"><tspan x="-20.307" y="0">If Approved</tspan></text>
    <text id="If_Approved-2" data-name="If Approved" transform="translate(1168.031 1152.442)" font-size="7" font-family="Poppins-Medium, Poppins" font-weight="500"><tspan x="-20.307" y="0">If Approved</tspan></text>
    <text id="Multi_Approval" data-name="Multi
Approval" transform="translate(1385.745 1198.151)" fill="#fff" font-size="9" font-family="Poppins-Medium, Poppins" font-weight="500"><tspan x="-10.939" y="0">Multi</tspan><tspan x="-20.669" y="11">Approval</tspan></text>
    <text id="Requested_documents_have_been_approved_after_the_intiator_has_uploaded_all_the_documents." data-name="Requested documents
have been approved after 
the intiator has uploaded 
all the documents." transform="translate(1513.39 1204.997)" fill="#fff" font-size="6" font-family="Poppins-Medium, Poppins" font-weight="500"><tspan x="-34.29" y="0">Requested documents</tspan><tspan x="-40.293" y="8">have been approved after </tspan><tspan x="-39.12" y="16">the intiator has uploaded </tspan><tspan x="-28.143" y="24">all the documents.</tspan></text>
    <text id="Approval_process_from_various_departments_others_authorities._Ex:_QA_Production_Dept" data-name="Approval process
from various
departments &amp;
others authorities.
Ex: QA, Production 
Dept" transform="translate(1227.133 1038.084)" font-size="8" font-family="Poppins-Medium, Poppins" font-weight="500"><tspan x="-35.352" y="0">Approval process</tspan><tspan x="-25.504" y="10">from various</tspan><tspan x="-30.556" y="20">departments &amp;</tspan><tspan x="-36.464" y="30">others authorities.</tspan><tspan x="-36.896" y="40">Ex: QA, Production </tspan><tspan x="-9.504" y="50">Dept</tspan></text>
    <g id="Group_486" data-name="Group 486" transform="translate(1450.23 1073.31)">
      <path id="Path_208" data-name="Path 208" d="M1397.458,1053.588a1.011,1.011,0,0,1-.721-.3l-11.777-12.049a1.01,1.01,0,0,1,1.443-1.412l11.777,12.051a1.009,1.009,0,0,1-.722,1.714" transform="translate(-1384.536 -1039.521)" fill="#fff"/>
      <path id="Path_209" data-name="Path 209" d="M1385.567,1053.43a1.008,1.008,0,0,1-.7-1.73l12.047-11.777a1.009,1.009,0,0,1,1.411,1.443l-12.049,11.778a1.008,1.008,0,0,1-.7.286" transform="translate(-1384.558 -1039.5)" fill="#fff"/>
    </g>
    <path id="Path_214" data-name="Path 214" d="M1464.371,1053.038l-5.945-6.936a1.24,1.24,0,1,1,1.883-1.614l4.146,4.836,7.838-8.335a1.24,1.24,0,0,1,1.808,1.7Z" transform="translate(79.416 33.99)" fill="#fff"/>
    <g transform="matrix(1, 0, 0, 1, 1033, 868.64)" filter="url(#Path_215)">
      <path id="Path_215-2" data-name="Path 215" d="M1197.658,1207.793a23.472,23.472,0,1,1,23.471-23.472A23.5,23.5,0,0,1,1197.658,1207.793Z" transform="translate(-1006.63 -890.52)" fill="#fff"/>
    </g>
    <path id="Path_216" data-name="Path 216" d="M1218.17,1183.919A20.916,20.916,0,1,1,1197.255,1163,20.917,20.917,0,0,1,1218.17,1183.919Z" transform="translate(26.776 -21.473)" fill="url(#linear-gradient-2)"/>
    <path id="Path_217" data-name="Path 217" d="M1193.336,1188.545l-5.946-6.936a1.241,1.241,0,0,1,1.885-1.615l4.145,4.837,7.836-8.336a1.241,1.241,0,0,1,1.809,1.7Z" transform="translate(28.785 -19.026)" fill="#fff"/>
    <g id="Group_488" data-name="Group 488" transform="translate(1139.769 981.724)">
      <path id="Path_218" data-name="Path 218" d="M1157.736,965.58l-4.422-3.229V965h-23.948a3.229,3.229,0,1,0,0,1.161h23.948v2.649Z" transform="translate(-1122.963 -962.351)"/>
      <path id="Path_219" data-name="Path 219" d="M1270.589,965.58l-4.423-3.229V965h-19.072a3.229,3.229,0,1,0,0,1.161h19.072v2.649Z" transform="translate(-1100.971 -962.351)"/>
      <path id="Path_220" data-name="Path 220" d="M1128.758,1116.314l4.422,3.227v-2.647h30.485a3.23,3.23,0,1,0,0-1.162H1133.18v-2.649Z" transform="translate(-1121.881 -934.194)"/>
      <path id="Path_221" data-name="Path 221" d="M1469.656,1209.4l-2.372,2.934h1.971v5.433H1195.735v-3.542a3.246,3.246,0,1,0-.806-.026v4.3h275.129v-6.161h1.97Z" transform="translate(-1110.031 -916.503)"/>
      <path id="Path_222" data-name="Path 222" d="M1485.829,1005.457V965H1360.922a3.229,3.229,0,1,0,0,1.161h35.5v40.076h-2.682l3.229,4.421,3.231-4.421h-2.681V966.161h87.215v39.3h-2.68l3.228,4.422,3.229-4.422Z" transform="translate(-1079.707 -962.351)"/>
      <path id="Path_223" data-name="Path 223" d="M1275.735,1151.155a3.228,3.228,0,0,0-3.173,2.648h-28.887v-37.7H1229.9v-2.682l-4.422,3.23,4.422,3.228v-2.68h12.618v78.06H1229.9v-2.681l-4.422,3.228,4.422,3.231v-2.682h13.78v-41.385h28.887a3.228,3.228,0,1,0,3.173-3.81" transform="translate(-1103.814 -934.131)"/>
      <path id="Path_224" data-name="Path 224" d="M1466.055,1101.251V1071.78H1465v29.471h-2.718l3.229,4.422,3.229-4.422Z" transform="translate(-1059.578 -941.909)"/>
    </g>
    <text id="Initiator_Action" data-name="Initiator Action" transform="translate(1511.955 1192.164)" fill="#fff" font-size="9" font-family="Poppins-Medium, Poppins" font-weight="500"><tspan x="-33.142" y="0">Initiator Action</tspan></text>
    <g transform="matrix(1, 0, 0, 1, 1033, 868.64)" filter="url(#Path_225)">
      <path id="Path_225-2" data-name="Path 225" d="M1197.658,1141.215a23.472,23.472,0,1,1,23.471-23.472A23.5,23.5,0,0,1,1197.658,1141.215Z" transform="translate(-1006.63 -745.11)" fill="#fff"/>
    </g>
    <path id="Path_226" data-name="Path 226" d="M1218.17,1117.341a20.916,20.916,0,1,1-20.915-20.916A20.917,20.917,0,0,1,1218.17,1117.341Z" transform="translate(26.776 123.935)" fill="url(#linear-gradient)"/>
    <g id="Group_490" data-name="Group 490" transform="translate(1216.998 1234.63)">
      <path id="Path_212" data-name="Path 212" d="M1200.937,1122.517a1.007,1.007,0,0,1-.722-.3l-11.777-12.047a1.01,1.01,0,0,1,1.443-1.412l11.777,12.049a1.01,1.01,0,0,1-.722,1.716" transform="translate(-1188.015 -1108.449)" fill="#fff"/>
      <path id="Path_213" data-name="Path 213" d="M1189.046,1122.36a1.01,1.01,0,0,1-.706-1.732l12.048-11.777a1.009,1.009,0,0,1,1.411,1.443l-12.049,11.777a1.006,1.006,0,0,1-.7.289" transform="translate(-1188.036 -1108.428)" fill="#fff"/>
    </g>
  </g>
</svg>
