<svg xmlns="http://www.w3.org/2000/svg" width="567.003" height="409.644" viewBox="0 0 567.003 409.644">
  <defs>
    <style>
      .cls-1, .cls-5, .cls-8 {
        fill: none;
        stroke: #3c3c3c;
      }

      .cls-1, .cls-5 {
        stroke-miterlimit: 10;
      }

      .cls-1 {
        stroke-width: 3px;
      }

      .cls-2, .cls-9 {
        fill: #fff;
      }

      .cls-3, .cls-4 {
        fill: #1c1c1c;
      }

      .cls-3 {
        font-size: 32.368px;
        font-family: Poppins-BoldItalic, Poppins;
        font-weight: 700;
        font-style: italic;
      }

      .cls-6 {
        fill: url(#linear-gradient);
      }

      .cls-7 {
        fill: url(#linear-gradient-3);
      }

      .cls-9 {
        font-size: 13.756px;
        font-family: Poppins-Medium, Poppins;
        font-weight: 500;
      }

      .cls-10 {
        fill: url(#linear-gradient-8);
      }

      .cls-11 {
        filter: url(#Path_172);
      }

      .cls-12 {
        filter: url(#Path_174);
      }

      .cls-13 {
        filter: url(#Path_176);
      }

      .cls-14 {
        filter: url(#Path_189);
      }

      .cls-15 {
        filter: url(#Path_178);
      }

      .cls-16 {
        filter: url(#Ellipse_31);
      }
    </style>
    <filter id="Ellipse_31" x="160.359" y="163.359" width="246.284" height="246.284" filterUnits="userSpaceOnUse">
      <feOffset dy="3" input="SourceAlpha"/>
      <feGaussianBlur stdDeviation="6" result="blur"/>
      <feFlood flood-opacity="0.294"/>
      <feComposite operator="in" in2="blur"/>
      <feComposite in="SourceGraphic"/>
    </filter>
    <linearGradient id="linear-gradient" x1="0.5" x2="0.5" y2="1" gradientUnits="objectBoundingBox">
      <stop offset="0" stop-color="#ff746c"/>
      <stop offset="1" stop-color="#ffada8"/>
    </linearGradient>
    <linearGradient id="linear-gradient-3" x1="0.5" x2="0.5" y2="1" gradientUnits="objectBoundingBox">
      <stop offset="0" stop-color="#27af50"/>
      <stop offset="1" stop-color="#55cf92"/>
    </linearGradient>
    <filter id="Path_178" x="58.427" y="58.427" width="168.029" height="168.028" filterUnits="userSpaceOnUse">
      <feOffset dy="1" input="SourceAlpha"/>
      <feGaussianBlur stdDeviation="6" result="blur-2"/>
      <feFlood flood-opacity="0.271"/>
      <feComposite operator="in" in2="blur-2"/>
      <feComposite in="SourceGraphic"/>
    </filter>
    <filter id="Path_189" x="0" y="199.491" width="168.022" height="168.022" filterUnits="userSpaceOnUse">
      <feOffset dy="1" input="SourceAlpha"/>
      <feGaussianBlur stdDeviation="6" result="blur-3"/>
      <feFlood flood-opacity="0.271"/>
      <feComposite operator="in" in2="blur-3"/>
      <feComposite in="SourceGraphic"/>
    </filter>
    <filter id="Path_176" x="199.491" y="0" width="168.021" height="168.022" filterUnits="userSpaceOnUse">
      <feOffset dy="1" input="SourceAlpha"/>
      <feGaussianBlur stdDeviation="6" result="blur-4"/>
      <feFlood flood-opacity="0.271"/>
      <feComposite operator="in" in2="blur-4"/>
      <feComposite in="SourceGraphic"/>
    </filter>
    <linearGradient id="linear-gradient-8" x1="0.5" x2="0.5" y2="1" gradientUnits="objectBoundingBox">
      <stop offset="0" stop-color="#ad8ce3"/>
      <stop offset="1" stop-color="#a8ebff"/>
    </linearGradient>
    <filter id="Path_174" x="340.548" y="58.427" width="168.028" height="168.029" filterUnits="userSpaceOnUse">
      <feOffset dy="1" input="SourceAlpha"/>
      <feGaussianBlur stdDeviation="6" result="blur-5"/>
      <feFlood flood-opacity="0.271"/>
      <feComposite operator="in" in2="blur-5"/>
      <feComposite in="SourceGraphic"/>
    </filter>
    <filter id="Path_172" x="398.981" y="199.491" width="168.022" height="168.021" filterUnits="userSpaceOnUse">
      <feOffset dy="1" input="SourceAlpha"/>
      <feGaussianBlur stdDeviation="6" result="blur-6"/>
      <feFlood flood-opacity="0.271"/>
      <feComposite operator="in" in2="blur-6"/>
      <feComposite in="SourceGraphic"/>
    </filter>
  </defs>
  <g id="Group_471" data-name="Group 471" transform="translate(-2429.839 -734.36)">
    <circle id="Ellipse_30" data-name="Ellipse 30" class="cls-1" cx="86.347" cy="86.347" r="86.347" transform="translate(2591.228 1017.861) rotate(-45)"/>
    <g class="cls-16" transform="matrix(1, 0, 0, 1, 2429.84, 734.36)">
      <circle id="Ellipse_31-2" data-name="Ellipse 31" class="cls-2" cx="74.347" cy="74.347" r="74.347" transform="translate(178.36 283.5) rotate(-45)"/>
    </g>
    <text id="MOC" class="cls-3" transform="translate(2673.94 1046.26)"><tspan x="0" y="0">MOC</tspan></text>
    <path id="Path_185" data-name="Path 185" class="cls-4" d="M2725,993.514a6.333,6.333,0,1,0-6.334-6.333A6.316,6.316,0,0,0,2725,993.514Zm-19-2.533a7.6,7.6,0,1,0-7.6-7.6A7.568,7.568,0,0,0,2706,990.981Zm19,7.6c-4.637,0-13.933,2.33-13.933,6.967v5.7h27.866v-5.7C2738.931,1000.91,2729.634,998.58,2725,998.58Zm-19-2.533c-5.9,0-17.733,2.964-17.733,8.866v6.334H2706v-5.7c0-2.152.836-5.928,6-8.792A31.1,31.1,0,0,0,2706,996.047Z"/>
    <g id="Group_466" data-name="Group 466">
      <line id="Line_37" data-name="Line 37" class="cls-5" x1="48" transform="translate(2578 1017.58)"/>
      <circle id="Ellipse_33" data-name="Ellipse 33" class="cls-6" cx="6.5" cy="6.5" r="6.5" transform="translate(2620 1011.08)"/>
    </g>
    <g id="Group_467" data-name="Group 467">
      <line id="Line_38" data-name="Line 38" class="cls-5" x2="48" transform="translate(2800 1017.58)"/>
      <circle id="Ellipse_34" data-name="Ellipse 34" class="cls-6" cx="6.5" cy="6.5" r="6.5" transform="translate(2793 1011.08)"/>
    </g>
    <g id="Group_468" data-name="Group 468">
      <line id="Line_39" data-name="Line 39" class="cls-5" y1="33.941" x2="33.941" transform="translate(2774.354 920.785)"/>
      <path id="Path_186" data-name="Path 186" class="cls-7" d="M2769.4,959.676a6.5,6.5,0,1,1,9.193,0A6.5,6.5,0,0,1,2769.4,959.676Z"/>
    </g>
    <g id="Group_469" data-name="Group 469">
      <line id="Line_40" data-name="Line 40" class="cls-5" x1="33.941" y1="33.941" transform="translate(2614.205 924.285)"/>
      <path id="Path_187" data-name="Path 187" class="cls-7" d="M2653.1,963.176a6.5,6.5,0,1,1,0-9.193A6.5,6.5,0,0,1,2653.1,963.176Z"/>
    </g>
    <g id="Group_470" data-name="Group 470">
      <path id="Path_281" data-name="Path 281" class="cls-8" d="M0,48V0" transform="translate(2713 882.58)"/>
      <path id="Path_188" data-name="Path 188" class="cls-6" d="M2713,937.58a6.5,6.5,0,1,1,6.5-6.5A6.5,6.5,0,0,1,2713,937.58Z"/>
    </g>
    <g class="cls-15" transform="matrix(1, 0, 0, 1, 2429.84, 734.36)">
      <path id="Path_178-2" data-name="Path 178" class="cls-2" d="M2593.64,938.244a66,66,0,1,1,41.086-83.8A65.992,65.992,0,0,1,2593.64,938.244Z" transform="translate(-2429.84 -734.36)"/>
    </g>
    <path id="Path_179" data-name="Path 179" class="cls-7" d="M2572.273,934.815a59.047,59.047,0,1,1,19.1-3.194A59,59,0,0,1,2572.273,934.815Z"/>
    <text id="Review" class="cls-9" transform="translate(2549.491 893.376)"><tspan x="0" y="0">Review</tspan></text>
    <text id="Reporting" class="cls-9" transform="translate(2539.999 909.884)"><tspan x="0" y="0">Reporting</tspan></text>
    <path id="Path_183" data-name="Path 183" class="cls-2" d="M2571.6,867.337l10.3,6.218-2.733-11.716,9.1-7.885-11.984-1.016-4.683-11.051-4.685,11.051-11.982,1.016,9.1,7.885-2.733,11.716Z"/>
    <g class="cls-14" transform="matrix(1, 0, 0, 1, 2429.84, 734.36)">
      <path id="Path_189-2" data-name="Path 189" class="cls-2" d="M2573.108,1045.912A66,66,0,1,1,2542.9,957.6,65.994,65.994,0,0,1,2573.108,1045.912Z" transform="translate(-2429.84 -734.36)"/>
    </g>
    <path id="Path_171" data-name="Path 171" class="cls-6" d="M2513.8,1075.872a58.41,58.41,0,0,1-25.921-6.038A59.006,59.006,0,0,1,2513.9,957.851a59.01,59.01,0,0,1-.1,118.021Z"/>
    <text id="Implement" class="cls-9" transform="translate(2475.454 1036.713)"><tspan x="0" y="0">Implement</tspan></text>
    <text id="Change" class="cls-9" transform="translate(2485.729 1053.22)"><tspan x="0" y="0">Change</tspan></text>
    <path id="Path_184" data-name="Path 184" class="cls-2" d="M2525.136,1001.072a11.372,11.372,0,0,0,.093-1.475,9.092,9.092,0,0,0-.11-1.476l3.19-2.482a.77.77,0,0,0,.187-.959l-3.017-5.217a.765.765,0,0,0-.926-.346l-3.754,1.509a11.081,11.081,0,0,0-2.546-1.477l-.564-3.99a.762.762,0,0,0-.755-.644H2510.9a.746.746,0,0,0-.739.644l-.564,3.99a11.288,11.288,0,0,0-2.546,1.477l-3.754-1.509a.749.749,0,0,0-.927.346l-3,5.217a.715.715,0,0,0,.188.959l3.19,2.482a8.632,8.632,0,0,0-.032,2.951l-3.19,2.484a.768.768,0,0,0-.187.958l3.016,5.217a.766.766,0,0,0,.927.345l3.754-1.509a11.117,11.117,0,0,0,2.546,1.478l.565,3.989a.773.773,0,0,0,.754.645h6.034a.735.735,0,0,0,.739-.645l.564-3.989a10.784,10.784,0,0,0,2.546-1.478l3.754,1.509a.749.749,0,0,0,.927-.345l3.016-5.217a.724.724,0,0,0-.187-.958Zm-11.219,4.18a5.656,5.656,0,1,1,5.655-5.655A5.671,5.671,0,0,1,2513.917,1005.252Z"/>
    <g class="cls-13" transform="matrix(1, 0, 0, 1, 2429.84, 734.36)">
      <path id="Path_176-2" data-name="Path 176" class="cls-2" d="M2684.29,876.629a66,66,0,1,1,88.31-30.205A65.993,65.993,0,0,1,2684.29,876.629Z" transform="translate(-2429.84 -734.36)"/>
    </g>
    <path id="Path_177" data-name="Path 177" class="cls-10" d="M2713.293,876.382A59.011,59.011,0,1,1,2739.309,764.4a59,59,0,0,1-26.016,111.983Z"/>
    <text id="Request_for" data-name="Request for" class="cls-9" transform="translate(2675.057 837.879)"><tspan x="0" y="0">Request for</tspan></text>
    <text id="Change-2" data-name="Change" class="cls-9" transform="translate(2686.53 854.387)"><tspan x="0" y="0">Change</tspan></text>
    <path id="Path_182" data-name="Path 182" class="cls-2" d="M2712,787.833v4.751l6.334-6.334L2712,779.917v4.75a12.643,12.643,0,0,0-10.7,19.411l2.311-2.311a9.3,9.3,0,0,1-1.108-4.433A9.507,9.507,0,0,1,2712,787.833Zm10.7,2.756-2.311,2.311A9.485,9.485,0,0,1,2712,806.834v-4.75l-6.334,6.333,6.334,6.334V810a12.644,12.644,0,0,0,10.7-19.412Z"/>
    <g class="cls-12" transform="matrix(1, 0, 0, 1, 2429.84, 734.36)">
      <path id="Path_174-2" data-name="Path 174" class="cls-2" d="M2791.958,897.16a66,66,0,1,1,83.8,41.086A65.993,65.993,0,0,1,2791.958,897.16Z" transform="translate(-2429.84 -734.36)"/>
    </g>
    <path id="Path_175" data-name="Path 175" class="cls-7" d="M2854.4,934.816a59.045,59.045,0,1,1,19.1-3.193A59,59,0,0,1,2854.4,934.816Z"/>
    <text id="Impact" class="cls-9" transform="translate(2827.77 895.376)"><tspan x="0" y="0">Impact</tspan></text>
    <text id="Analysis" class="cls-9" transform="translate(2823.849 911.884)"><tspan x="0" y="0">Analysis</tspan></text>
    <path id="Path_180" data-name="Path 180" class="cls-2" d="M2867.667,849.65v2.492h-3.737v3.737h-2.491v-3.737H2857.7V849.65h3.738v-3.737h2.491v3.737Zm-3.737,17.44h-17.44V849.65h7.475v-2.491h-7.475A2.5,2.5,0,0,0,2844,849.65v17.44a2.5,2.5,0,0,0,2.491,2.491h17.44a2.5,2.5,0,0,0,2.492-2.491v-7.475h-2.492Zm-4.983-7.475V864.6h2.492v-4.984Zm-4.982,4.984h2.491v-9.966h-2.491Zm-2.492,0v-7.475h-2.492V864.6Z"/>
    <g class="cls-11" transform="matrix(1, 0, 0, 1, 2429.84, 734.36)">
      <path id="Path_172-2" data-name="Path 172" class="cls-2" d="M2853.573,987.811a66,66,0,1,1,30.205,88.309A65.993,65.993,0,0,1,2853.573,987.811Z" transform="translate(-2429.84 -734.36)"/>
    </g>
    <path id="Path_173" data-name="Path 173" class="cls-6" d="M2912.779,1075.871a58.421,58.421,0,0,1-25.92-6.036,59.007,59.007,0,0,1,26.019-111.984,59.01,59.01,0,0,1-.1,118.02Z"/>
    <text id="Approve" class="cls-9" transform="translate(2884.103 1037.713)"><tspan x="0" y="0">Approve</tspan></text>
    <text id="Deny" class="cls-9" transform="translate(2895.865 1054.221)"><tspan x="0" y="0">Deny</tspan></text>
    <g id="Group_465" data-name="Group 465">
      <path id="Path_181" data-name="Path 181" class="cls-2" d="M2915.787,1010.036l-.014.014-3.361-3.361,1.485-1.484,1.89,1.892,3.486-3.473,1.483,1.484-4.954,4.956Zm-2.87-21.812a14,14,0,1,0,14,14A14.041,14.041,0,0,0,2912.917,988.224Zm-6.524,5.992,1.974,1.975,1.975-1.975,1.482,1.483-1.973,1.975,1.973,1.974-1.482,1.483-1.975-1.974-1.974,1.974-1.484-1.483,1.975-1.974-1.975-1.975Zm6.524,19.208a11.712,11.712,0,0,1-7.98-3.22l15.96-15.961a11.716,11.716,0,0,1,3.22,7.981A11.232,11.232,0,0,1,2912.917,1013.424Z"/>
    </g>
  </g>
</svg>
