<svg xmlns="http://www.w3.org/2000/svg" width="662.942" height="478.407" viewBox="0 0 662.942 478.407">
  <defs>
    <filter id="Path_228" x="45" y="44.222" width="303.637" height="207.238" filterUnits="userSpaceOnUse">
      <feOffset dy="1" input="SourceAlpha"/>
      <feGaussianBlur stdDeviation="6" result="blur"/>
      <feFlood flood-opacity="0.161"/>
      <feComposite operator="in" in2="blur"/>
      <feComposite in="SourceGraphic"/>
    </filter>
    <filter id="Path_229" x="322.065" y="44.222" width="303.636" height="207.238" filterUnits="userSpaceOnUse">
      <feOffset dy="1" input="SourceAlpha"/>
      <feGaussianBlur stdDeviation="6" result="blur-2"/>
      <feFlood flood-opacity="0.161"/>
      <feComposite operator="in" in2="blur-2"/>
      <feComposite in="SourceGraphic"/>
    </filter>
    <filter id="Path_230" x="322.065" y="225.706" width="303.636" height="222.38" filterUnits="userSpaceOnUse">
      <feOffset dy="1" input="SourceAlpha"/>
      <feGaussianBlur stdDeviation="6" result="blur-3"/>
      <feFlood flood-opacity="0.161"/>
      <feComposite operator="in" in2="blur-3"/>
      <feComposite in="SourceGraphic"/>
    </filter>
    <filter id="Path_232" x="53.675" y="0" width="207.864" height="63.306" filterUnits="userSpaceOnUse">
      <feOffset dy="3" input="SourceAlpha"/>
      <feGaussianBlur stdDeviation="3" result="blur-4"/>
      <feFlood flood-opacity="0.161"/>
      <feComposite operator="in" in2="blur-4"/>
      <feComposite in="SourceGraphic"/>
    </filter>
    <filter id="Path_233" x="251.589" y="0" width="207.863" height="63.306" filterUnits="userSpaceOnUse">
      <feOffset dy="3" input="SourceAlpha"/>
      <feGaussianBlur stdDeviation="3" result="blur-5"/>
      <feFlood flood-opacity="0.161"/>
      <feComposite operator="in" in2="blur-5"/>
      <feComposite in="SourceGraphic"/>
    </filter>
    <filter id="Path_234" x="455.078" y="0" width="207.865" height="63.306" filterUnits="userSpaceOnUse">
      <feOffset dy="3" input="SourceAlpha"/>
      <feGaussianBlur stdDeviation="3" result="blur-6"/>
      <feFlood flood-opacity="0.161"/>
      <feComposite operator="in" in2="blur-6"/>
      <feComposite in="SourceGraphic"/>
    </filter>
    <linearGradient id="linear-gradient" x1="0.5" x2="0.5" y2="1" gradientUnits="objectBoundingBox">
      <stop offset="0" stop-color="#ff746c"/>
      <stop offset="1" stop-color="#ffada8"/>
    </linearGradient>
    <linearGradient id="linear-gradient-4" x1="0.5" x2="0.5" y2="1" gradientUnits="objectBoundingBox">
      <stop offset="0" stop-color="#27af50"/>
      <stop offset="1" stop-color="#55cf92"/>
    </linearGradient>
    <filter id="Path_231" x="0" y="225.385" width="347.637" height="253.022" filterUnits="userSpaceOnUse">
      <feOffset dy="1" input="SourceAlpha"/>
      <feGaussianBlur stdDeviation="6" result="blur-7"/>
      <feFlood flood-opacity="0.161"/>
      <feComposite operator="in" in2="blur-7"/>
      <feComposite in="SourceGraphic"/>
    </filter>
  </defs>
  <g id="Group_534" data-name="Group 534" transform="translate(-66 -1921.136)">
    <g transform="matrix(1, 0, 0, 1, 66, 1921.14)" filter="url(#Path_228)">
      <path id="Path_228-2" data-name="Path 228" d="M3856.76,1471H3604.367a7.623,7.623,0,0,1-7.622-7.623V1307.388a7.622,7.622,0,0,1,7.622-7.622H3856.76a7.622,7.622,0,0,1,7.622,7.622v155.993a7.623,7.623,0,0,1-7.622,7.623" transform="translate(-3533.75 -1238.54)" fill="#fff"/>
    </g>
    <g transform="matrix(1, 0, 0, 1, 66, 1921.14)" filter="url(#Path_229)">
      <path id="Path_229-2" data-name="Path 229" d="M4133.824,1471H3881.432a7.623,7.623,0,0,1-7.622-7.623V1307.388a7.622,7.622,0,0,1,7.622-7.622h252.392a7.622,7.622,0,0,1,7.622,7.622v155.993a7.623,7.623,0,0,1-7.622,7.623" transform="translate(-3533.75 -1238.54)" fill="#fff"/>
    </g>
    <g transform="matrix(1, 0, 0, 1, 66, 1921.14)" filter="url(#Path_230)">
      <path id="Path_230-2" data-name="Path 230" d="M4133.824,1667.63H3881.432a7.622,7.622,0,0,1-7.622-7.622V1488.872a7.622,7.622,0,0,1,7.622-7.622h252.392a7.622,7.622,0,0,1,7.622,7.622v171.136a7.622,7.622,0,0,1-7.622,7.622" transform="translate(-3533.75 -1238.54)" fill="#fff"/>
    </g>
    <g transform="matrix(1, 0, 0, 1, 66, 1921.14)" filter="url(#Path_232)">
      <path id="Path_232-2" data-name="Path 232" d="M3782.156,1292.714H3603.2a5.453,5.453,0,0,1-5.454-5.453v-34.4a5.453,5.453,0,0,1,5.454-5.454h178.957a5.454,5.454,0,0,1,5.454,5.454v34.4a5.454,5.454,0,0,1-5.454,5.453" transform="translate(-3535.07 -1241.41)" fill="#fff"/>
    </g>
    <g transform="matrix(1, 0, 0, 1, 66, 1921.14)" filter="url(#Path_233)">
      <path id="Path_233-2" data-name="Path 233" d="M3963.785,1292.714H3784.828a5.453,5.453,0,0,1-5.453-5.453v-34.4a5.453,5.453,0,0,1,5.453-5.454h178.958a5.453,5.453,0,0,1,5.453,5.454v34.4a5.453,5.453,0,0,1-5.453,5.453" transform="translate(-3518.79 -1241.41)" fill="#fff"/>
    </g>
    <g transform="matrix(1, 0, 0, 1, 66, 1921.14)" filter="url(#Path_234)">
      <path id="Path_234-2" data-name="Path 234" d="M4150.53,1292.714H3971.573a5.453,5.453,0,0,1-5.454-5.453v-34.4a5.454,5.454,0,0,1,5.454-5.454H4150.53a5.454,5.454,0,0,1,5.453,5.454v34.4a5.454,5.454,0,0,1-5.453,5.453" transform="translate(-3502.04 -1241.41)" fill="#fff"/>
    </g>
    <path id="Path_235" data-name="Path 235" d="M3770.261,1292.714h-39.852v-45.306h39.852a5.454,5.454,0,0,1,5.454,5.454v34.4a5.454,5.454,0,0,1-5.454,5.453" transform="translate(-3457.177 679.728)" fill="url(#linear-gradient)"/>
    <path id="Path_236" data-name="Path 236" d="M3954.432,1292.714h-39.853v-45.306h39.853a5.453,5.453,0,0,1,5.453,5.454v34.4a5.453,5.453,0,0,1-5.453,5.453" transform="translate(-3440.663 679.728)" fill="url(#linear-gradient)"/>
    <path id="Path_237" data-name="Path 237" d="M4138.347,1292.714H4098.5v-45.306h39.851a5.454,5.454,0,0,1,5.454,5.454v34.4a5.454,5.454,0,0,1-5.454,5.453" transform="translate(-3424.172 679.728)" fill="url(#linear-gradient)"/>
    <path id="Path_238" data-name="Path 238" d="M3729.051,1329.64v33.073a25.856,25.856,0,0,0-19.379,9.519l-26.445-19.875a58.874,58.874,0,0,1,45.824-22.717" transform="translate(-3467.745 682.592)" fill="url(#linear-gradient-4)"/>
    <path id="Path_239" data-name="Path 239" d="M3788.728,1388.612a58.7,58.7,0,0,1-10.278,33.277l-26.5-19.918a25.917,25.917,0,0,0-19.637-39.143v-33.137a58.977,58.977,0,0,1,56.412,58.921" transform="translate(-3467.745 682.592)" fill="url(#linear-gradient)"/>
    <path id="Path_240" data-name="Path 240" d="M3776.533,1424.53a59,59,0,0,1-102.268-15.871l31.973-9.142a25.919,25.919,0,0,0,43.856,5.14Z" transform="translate(-3467.745 682.592)" fill="#314269"/>
    <path id="Path_241" data-name="Path 241" d="M3703.84,1388.612a25.868,25.868,0,0,0,1.211,7.85l-31.811,9.095a59.124,59.124,0,0,1,8.049-50.574l26.481,19.9a25.772,25.772,0,0,0-3.93,13.724" transform="translate(-3467.745 682.592)" fill="#313131"/>
    <text id="_40_" data-name="40%" transform="translate(292.501 2056.838)" fill="#fff" font-size="8.381" font-family="Poppins-SemiBold, Poppins" font-weight="600"><tspan x="0" y="0">40%</tspan></text>
    <text id="_96_" data-name="96%" transform="translate(478.646 2080.065)" fill="#1c1c1c" font-size="28.607" font-family="Poppins-SemiBold, Poppins" font-weight="600"><tspan x="0" y="0">96%</tspan></text>
    <text id="_15_" data-name="15%" transform="translate(235.271 2037.255)" fill="#fff" font-size="8.381" font-family="Poppins-SemiBold, Poppins" font-weight="600"><tspan x="0" y="0">15%</tspan></text>
    <text id="Status_wise_MOC" data-name="Status wise MOC" transform="translate(137.329 1997.808)" font-size="9.103" font-family="Poppins-SemiBold, Poppins" font-weight="600"><tspan x="0" y="0">Status wise MOC</tspan></text>
    <text id="Average_MOC" data-name="Average MOC" transform="translate(143.036 1949.063)" font-size="12" font-family="Poppins-SemiBold, Poppins" font-weight="600"><tspan x="0" y="0">Average MOC</tspan></text>
    <text id="_14" data-name="14" transform="translate(283.451 1953.134)" fill="#fff" font-size="22" font-family="Poppins-SemiBold, Poppins" font-weight="600"><tspan x="0" y="0">14</tspan></text>
    <text id="Closure_Time" data-name="Closure Time" transform="translate(143.036 1959.587)" font-size="7" font-family="Poppins-Medium, Poppins" font-weight="500"><tspan x="0" y="0">Closure Time</tspan></text>
    <text id="MOC_Approval_by" data-name="MOC Approval by" transform="translate(339.083 1949.063)" font-size="12" font-family="Poppins-SemiBold, Poppins" font-weight="600"><tspan x="0" y="0">MOC Approval by</tspan></text>
    <text id="_5" data-name="5" transform="translate(488.884 1957.916)" fill="#fff" font-size="22" font-family="Poppins-SemiBold, Poppins" font-weight="600"><tspan x="0" y="0">5</tspan></text>
    <text id="SHE" transform="translate(339.083 1959.587)" font-size="7" font-family="Poppins-Medium, Poppins" font-weight="500"><tspan x="0" y="0">SHE</tspan></text>
    <text id="MOC_Pending" data-name="MOC Pending" transform="translate(541.973 1949.063)" font-size="12" font-family="Poppins-SemiBold, Poppins" font-weight="600"><tspan x="0" y="0">MOC Pending</tspan></text>
    <text id="_25" data-name="25" transform="translate(683.271 1957.03)" fill="#fff" font-size="22" font-family="Poppins-SemiBold, Poppins" font-weight="600"><tspan x="0" y="0">25</tspan></text>
    <text id="Execution" transform="translate(541.973 1959.587)" font-size="7" font-family="Poppins-Medium, Poppins" font-weight="500"><tspan x="0" y="0">Execution</tspan></text>
    <text id="DAYS" transform="translate(285.723 1964.753)" fill="#fff" font-size="7" font-family="Poppins-Medium, Poppins" font-weight="500"><tspan x="0" y="0">DAYS</tspan></text>
    <text id="MOC_Accepted_Rejected" data-name="MOC Accepted / Rejected" transform="translate(415.009 1997.808)" font-size="9.103" font-family="Poppins-SemiBold, Poppins" font-weight="600"><tspan x="0" y="0">MOC Accepted / Rejected</tspan></text>
    <text id="Factory_Manager_Approval" data-name="Factory Manager 
Approval" transform="translate(152.677 2015.911)" font-size="9.103" font-family="Poppins-Regular, Poppins"><tspan x="0" y="0">Factory Manager </tspan><tspan x="0" y="10.923">Approval</tspan></text>
    <text id="MR_Approval" data-name="MR 
Approval" transform="translate(147.251 2062.965)" font-size="9.103" font-family="Poppins-Regular, Poppins"><tspan x="0" y="0">MR </tspan><tspan x="0" y="10.923">Approval</tspan></text>
    <text id="QA_Approval" data-name="QA Approval" transform="translate(234.327 2144.049)" font-size="9.103" font-family="Poppins-Regular, Poppins"><tspan x="0" y="0">QA Approval</tspan></text>
    <text id="Safety_Approval" data-name="Safety 
Approval" transform="translate(327.084 2048.692)" font-size="9.103" font-family="Poppins-Regular, Poppins"><tspan x="0" y="0">Safety </tspan><tspan x="0" y="10.923">Approval</tspan></text>
    <text id="_4_REJECTED" data-name="4% REJECTED" transform="translate(565.381 2083.922)" font-size="9.244" font-family="Poppins-Regular, Poppins"><tspan x="0" y="0">4% REJECTED</tspan></text>
    <text id="ACCEPTED" transform="translate(485.726 2093.82)" font-size="8.5" font-family="Poppins-Regular, Poppins"><tspan x="0" y="0">ACCEPTED</tspan></text>
    <text id="_10_" data-name="10%" transform="translate(212.811 2068.387)" fill="#fff" font-size="8.381" font-family="Poppins-SemiBold, Poppins" font-weight="600"><tspan x="0" y="0">10%</tspan></text>
    <text id="_40_2" data-name="40%" transform="translate(252.074 2115.278)" fill="#fff" font-size="8.381" font-family="Poppins-SemiBold, Poppins" font-weight="600"><tspan x="0" y="0">40%</tspan></text>
    <g id="Group_491" data-name="Group 491" transform="translate(-3467.745 682.592)">
      <path id="Path_242" data-name="Path 242" d="M4011.283,1522.2v33.074a25.863,25.863,0,0,0-19.379,9.52l-26.444-19.877a58.876,58.876,0,0,1,45.823-22.717" fill="url(#linear-gradient-4)"/>
      <path id="Path_243" data-name="Path 243" d="M4070.961,1581.17a58.7,58.7,0,0,1-10.278,33.277l-26.5-19.919a25.915,25.915,0,0,0-19.636-39.142v-33.137a58.977,58.977,0,0,1,56.412,58.921" fill="url(#linear-gradient)"/>
      <path id="Path_244" data-name="Path 244" d="M4058.766,1617.088a59,59,0,0,1-102.269-15.871l31.975-9.143a25.917,25.917,0,0,0,43.854,5.142Z" fill="#314269"/>
      <path id="Path_245" data-name="Path 245" d="M3986.072,1581.17a25.88,25.88,0,0,0,1.211,7.85l-31.81,9.094a59.112,59.112,0,0,1,8.049-50.573l26.481,19.9a25.779,25.779,0,0,0-3.931,13.725" fill="#313131"/>
    </g>
    <text id="_40_3" data-name="40%" transform="translate(572.166 2252.216)" fill="#fff" font-size="8.381" font-family="Poppins-SemiBold, Poppins" font-weight="600"><tspan x="0" y="0">40%</tspan></text>
    <text id="_15_2" data-name="15%" transform="translate(517.935 2229.63)" fill="#fff" font-size="8.381" font-family="Poppins-SemiBold, Poppins" font-weight="600"><tspan x="0" y="0">15%</tspan></text>
    <text id="Department_wise_MOC" data-name="Department wise MOC" transform="translate(418.089 2181.191)" font-size="9.103" font-family="Poppins-SemiBold, Poppins" font-weight="600"><tspan x="0" y="0">Department wise MOC</tspan></text>
    <text id="NPT" transform="translate(496.949 2202.407)" font-size="9.103" font-family="Poppins-Regular, Poppins"><tspan x="0" y="0">NPT</tspan></text>
    <text id="Maintenance" transform="translate(417.219 2263.956)" font-size="9.103" font-family="Poppins-Regular, Poppins"><tspan x="0" y="0">Maintenance</tspan></text>
    <text id="Regulatory" transform="translate(519.979 2336.898)" font-size="9.103" font-family="Poppins-Regular, Poppins"><tspan x="0" y="0">Regulatory</tspan></text>
    <text id="SHE-2" data-name="SHE" transform="translate(606.754 2236.918)" font-size="9.103" font-family="Poppins-Regular, Poppins"><tspan x="0" y="0">SHE</tspan></text>
    <text id="Select_Quarter" data-name="Select Quarter" transform="translate(597.428 2177.279)" font-size="8" font-family="Poppins-Bold, Poppins" font-weight="700"><tspan x="0" y="0">Select Quarter</tspan></text>
    <text id="Q1_2020" data-name="Q1, 2020" transform="translate(597.428 2187.068)" font-size="8" font-family="Poppins-Regular, Poppins"><tspan x="0" y="0">Q1, 2020</tspan></text>
    <text id="_10_2" data-name="10%" transform="translate(494.476 2261.764)" fill="#fff" font-size="8.381" font-family="Poppins-SemiBold, Poppins" font-weight="600"><tspan x="0" y="0">10%</tspan></text>
    <text id="_40_4" data-name="40%" transform="translate(532.738 2309.655)" fill="#fff" font-size="8.381" font-family="Poppins-SemiBold, Poppins" font-weight="600"><tspan x="0" y="0">40%</tspan></text>
    <path id="Path_246" data-name="Path 246" d="M4026.318,1392.627a52.285,52.285,0,1,1-52.285-52.284A52.285,52.285,0,0,1,4026.318,1392.627Z" transform="translate(-3467.745 682.592)" fill="none" stroke="#cad3d4" stroke-miterlimit="10" stroke-width="1.667"/>
    <path id="Path_247" data-name="Path 247" d="M4025.647,1404.441a52.282,52.282,0,1,1-.1-24.038" transform="translate(-3467.745 682.592)" fill="none" stroke="#313131" stroke-linecap="round" stroke-miterlimit="10" stroke-width="3.889"/>
    <g id="Group_493" data-name="Group 493" transform="translate(-45 -13.321)">
      <g transform="matrix(1, 0, 0, 1, 111, 1934.46)" filter="url(#Path_231)">
        <path id="Path_231-2" data-name="Path 231" d="M3899.508,1698.272H3605.62a8.875,8.875,0,0,1-8.875-8.875V1490.125a8.875,8.875,0,0,1,8.875-8.875h293.887a8.875,8.875,0,0,1,8.875,8.875V1689.4a8.875,8.875,0,0,1-8.875,8.875" transform="translate(-3578.75 -1238.86)" fill="#fff"/>
      </g>
      <text id="_0" data-name="0" transform="translate(149.885 2347.633)" font-size="7" font-family="Poppins-Regular, Poppins"><tspan x="0" y="0">0</tspan></text>
      <text id="Jul" transform="translate(175.915 2361.358)" font-size="8" font-family="Poppins-Regular, Poppins"><tspan x="0" y="0">Jul</tspan></text>
      <text id="Aug" transform="translate(216.729 2361.358)" font-size="8" font-family="Poppins-Regular, Poppins"><tspan x="0" y="0">Aug</tspan></text>
      <text id="Sep" transform="translate(258.745 2361.358)" font-size="8" font-family="Poppins-Regular, Poppins"><tspan x="0" y="0">Sep</tspan></text>
      <text id="Oct" transform="translate(299.476 2361.358)" font-size="8" font-family="Poppins-Regular, Poppins"><tspan x="0" y="0">Oct</tspan></text>
      <text id="Nov" transform="translate(340.748 2361.358)" font-size="8" font-family="Poppins-Regular, Poppins"><tspan x="0" y="0">Nov</tspan></text>
      <text id="Dec" transform="translate(380.212 2361.358)" font-size="8" font-family="Poppins-Regular, Poppins"><tspan x="0" y="0">Dec</tspan></text>
      <text id="_2" data-name="2" transform="translate(150.037 2334.915)" font-size="7" font-family="Poppins-Regular, Poppins"><tspan x="0" y="0">2</tspan></text>
      <text id="_4" data-name="4" transform="translate(149.986 2319.838)" font-size="7" font-family="Poppins-Regular, Poppins"><tspan x="0" y="0">4</tspan></text>
      <text id="_6" data-name="6" transform="translate(149.969 2306.837)" font-size="7" font-family="Poppins-Regular, Poppins"><tspan x="0" y="0">6</tspan></text>
      <text id="_8" data-name="8" transform="translate(149.981 2292.673)" font-size="7" font-family="Poppins-Regular, Poppins"><tspan x="0" y="0">8</tspan></text>
      <text id="_10" data-name="10" transform="translate(149.1 2280.313)" font-size="7" font-family="Poppins-Regular, Poppins"><tspan x="0" y="0">10</tspan></text>
      <text id="_12" data-name="12" transform="translate(149.249 2265.237)" font-size="7" font-family="Poppins-Regular, Poppins"><tspan x="0" y="0">12</tspan></text>
      <text id="_14-2" data-name="14" transform="translate(149.1 2252.701)" font-size="7" font-family="Poppins-Regular, Poppins"><tspan x="0" y="0">14</tspan></text>
      <text id="_16" data-name="16" transform="translate(149.083 2238.537)" font-size="7" font-family="Poppins-Regular, Poppins"><tspan x="0" y="0">16</tspan></text>
      <text id="MOC_Executed" data-name="MOC Executed" transform="translate(143.002 2198.4)" font-size="12" font-family="Poppins-SemiBold, Poppins" font-weight="600"><tspan x="0" y="0">MOC Executed</tspan></text>
      <text id="Select_Quarter-2" data-name="Select Quarter" transform="translate(359.54 2192.665)" font-size="8" font-family="Poppins-Bold, Poppins" font-weight="700"><tspan x="0" y="0">Select Quarter</tspan></text>
      <text id="H1_2020" data-name="H1, 2020" transform="translate(359.54 2202.899)" font-size="8" font-family="Poppins-Regular, Poppins"><tspan x="0" y="0">H1, 2020</tspan></text>
      <g id="Group_492" data-name="Group 492" transform="translate(159.263 2230.816)">
        <rect id="Rectangle_168" data-name="Rectangle 168" width="1.136" height="117.895" transform="translate(0 0)" fill="#dbdbdb"/>
        <rect id="Rectangle_169" data-name="Rectangle 169" width="254.886" height="1.136" transform="translate(0.567 6.851)" fill="#dbdbdb"/>
        <rect id="Rectangle_170" data-name="Rectangle 170" width="254.886" height="1.136" transform="translate(0.567 20.591)" fill="#dbdbdb"/>
        <rect id="Rectangle_171" data-name="Rectangle 171" width="254.886" height="1.136" transform="translate(0.567 34.331)" fill="#dbdbdb"/>
        <rect id="Rectangle_172" data-name="Rectangle 172" width="254.886" height="1.136" transform="translate(0.567 48.07)" fill="#dbdbdb"/>
        <rect id="Rectangle_173" data-name="Rectangle 173" width="254.886" height="1.135" transform="translate(0.567 61.81)" fill="#dbdbdb"/>
        <rect id="Rectangle_174" data-name="Rectangle 174" width="254.886" height="1.135" transform="translate(0.567 75.55)" fill="#dbdbdb"/>
        <rect id="Rectangle_175" data-name="Rectangle 175" width="254.886" height="1.135" transform="translate(0.567 89.29)" fill="#dbdbdb"/>
        <rect id="Rectangle_176" data-name="Rectangle 176" width="254.886" height="1.135" transform="translate(0.567 103.029)" fill="#dbdbdb"/>
        <rect id="Rectangle_177" data-name="Rectangle 177" width="254.886" height="1.136" transform="translate(0.567 116.768)" fill="#dbdbdb"/>
        <rect id="Rectangle_178" data-name="Rectangle 178" width="16.496" height="67.419" transform="translate(16.556 50.961)" fill="url(#linear-gradient)"/>
        <rect id="Rectangle_179" data-name="Rectangle 179" width="16.497" height="81.137" transform="translate(59.051 37.244)" fill="url(#linear-gradient)"/>
        <rect id="Rectangle_180" data-name="Rectangle 180" width="16.497" height="59.411" transform="translate(100.756 58.97)" fill="url(#linear-gradient)"/>
        <rect id="Rectangle_181" data-name="Rectangle 181" width="16.496" height="95.661" transform="translate(141.116 22.72)" fill="url(#linear-gradient)"/>
        <rect id="Rectangle_182" data-name="Rectangle 182" width="16.496" height="108.034" transform="translate(182.821 10.347)" fill="url(#linear-gradient)"/>
        <rect id="Rectangle_183" data-name="Rectangle 183" width="16.497" height="93.779" transform="translate(222.373 24.601)" fill="url(#linear-gradient)"/>
      </g>
      <path id="Path_248" data-name="Path 248" d="M3835.355,1500.553l2.743,2.745,2.745-2.745" transform="translate(-3428.517 698.766)" fill="none" stroke="#000" stroke-miterlimit="10" stroke-width="0.65"/>
    </g>
    <path id="Path_249" data-name="Path 249" d="M4112.084,1500.553l2.357,2.357,2.357-2.357" transform="translate(-3461.745 682.592)" fill="none" stroke="#000" stroke-miterlimit="10" stroke-width="0.65"/>
  </g>
</svg>
