<svg width="22" height="22" viewBox="0 0 22 22" xmlns="http://www.w3.org/2000/svg"><g id="Page-1" stroke="none" stroke-width="1" fill="none" fill-rule="evenodd"><g id="Deploy-Page-6" transform="translate(-1010 -3008)"><g id="Group-64-Copy-2" transform="translate(0 750)"><g id="Group-63" transform="translate(109 410)"><g id="Group-62" transform="translate(0 1240)"><g id="Group-59" transform="translate(88 24)"><g id="Group-58" transform="translate(0 537)"><g id="Group-56" transform="translate(812 45)"><g id="Group-39-Copy-3"><g id="icon-device-copy-2" transform="translate(0 1)"><path id="Rectangle" d="M0 0h24v24H0z"/><g id="Group" transform="translate(2.4 2.4)" stroke="#007FFF"><path d="M.914 0h13.172c.505 0 .914.41.914.914v10.172c0 .505-.41.914-.914.914H.914A.914.914 0 010 11.086V.914C0 .41.41 0 .914 0z" id="Rectangle-Copy-74" stroke-width="1.8" stroke-linecap="round" stroke-linejoin="round"/><path id="Path-94" stroke-width="1.8" stroke-linecap="round" stroke-linejoin="round" d="M7.5 12v3.812M2.7 16.412h7.5"/><path d="M11.714 5.4h6.572c.505 0 .914.41.914.914v11.972c0 .505-.41.914-.914.914h-6.572a.914.914 0 01-.914-.914V6.314c0-.505.41-.914.914-.914z" id="Rectangle-Copy-75" stroke-width="1.8" fill="#FFF" stroke-linecap="round" stroke-linejoin="round"/><path d="M15.12 17.312a.9.9 0 100-1.8.9.9 0 000 1.8z" id="Oval" stroke-width=".9" fill="#B2D3FE"/><path id="Path-94-Copy" stroke-width="1.56" stroke-linecap="round" stroke-linejoin="round" d="M14.1 8.012h1.92"/></g></g></g></g></g></g></g></g></g></g></g></svg>