<svg width="40" height="40" viewBox="0 0 40 40" xmlns="http://www.w3.org/2000/svg"><g id="Page-1" stroke="none" stroke-width="1" fill="none" fill-rule="evenodd"><g id="Deploy-Page-6" transform="translate(-173 -6555)"><g id="Group-131" transform="translate(0 6150)"><g id="Group-130" transform="translate(130 72)"><g id="Group-129" transform="translate(0 152)"><g id="Group-123" transform="translate(0 150)"><g id="Group-102" transform="translate(43 31)"><g id="icon-Security-Compliances"><path id="Rectangle-Copy-33" fill="#FFF" d="M0 0h40v40H0z"/><g id="shield" transform="translate(8 4)" fill-rule="nonzero"><path d="M23.142 3.967L12.008.037a.654.654 0 00-.436 0L.437 3.967A.656.656 0 000 4.585v7.86c0 10.171 1.508 13.889 11.495 18.924a.656.656 0 00.59 0c9.986-5.035 11.494-8.753 11.494-18.924v-7.86a.656.656 0 00-.437-.618zm-.873 8.478c0 9.742-1.242 12.895-10.48 17.605C2.553 25.34 1.31 22.187 1.31 12.445V5.049l10.48-3.7 10.48 3.7v7.396h0z" id="Shape" stroke="#007FFF" stroke-width=".842" fill="#007FFF"/><path id="Rectangle" fill="#B2D3FE" d="M7 13h10v7.212H7z"/><path d="M7.205 11.135v.655c-.722 0-1.31.588-1.31 1.31v6.55c0 .722.588 1.31 1.31 1.31h9.17c.722 0 1.31-.588 1.31-1.31V13.1c0-.722-.588-1.31-1.31-1.31v-.655A4.59 4.59 0 0011.79 6.55a4.59 4.59 0 00-4.585 4.585zm9.17 8.514h-9.17V13.1h-.001v-.654.655h9.17v6.55zm-1.31-8.514v.655h-6.55v-.655A3.279 3.279 0 0111.79 7.86a3.279 3.279 0 013.274 3.275z" id="Shape" stroke="#007FFF" stroke-width=".842" fill="#007FFF"/><path d="M11.135 16.828v.857a.655.655 0 101.31 0v-.857c.384-.228.655-.63.655-1.108 0-.722-.588-1.31-1.31-1.31-.722 0-1.31.588-1.31 1.31 0 .478.27.88.655 1.108z" id="Path" stroke="#007FFF" stroke-width=".5" fill="#007FFF"/></g></g></g></g></g></g></g></g></g></svg>