<svg width="22" height="20" viewBox="0 0 22 20" xmlns="http://www.w3.org/2000/svg"><g id="Page-1" stroke="none" stroke-width="1" fill="none" fill-rule="evenodd"><g id="Deploy-Page-6" transform="translate(-811 -3009)"><g id="Group-64-Copy-2" transform="translate(0 750)"><g id="Group-63" transform="translate(109 410)"><g id="Group-62" transform="translate(0 1240)"><g id="Group-59" transform="translate(88 24)"><g id="Group-58" transform="translate(0 537)"><g id="Group-44" transform="translate(613 45)"><g id="Group-39-Copy-5"><g id="icon-browser-copy-2" transform="translate(0 1)"><path id="Rectangle" d="M0 0h24v24H0z"/><path d="M4.08 3.84h15.84a1.2 1.2 0 011.2 1.2v13.92a1.2 1.2 0 01-1.2 1.2H4.08a1.2 1.2 0 01-1.2-1.2V5.04a1.2 1.2 0 011.2-1.2z" id="Rectangle" stroke="#007FFF" stroke-width="1.8" stroke-linecap="round" stroke-linejoin="round"/><path d="M4.08 3.84h15.84a1.2 1.2 0 011.2 1.2v2.4a1.2 1.2 0 01-1.2 1.2H4.08a1.2 1.2 0 01-1.2-1.2v-2.4a1.2 1.2 0 011.2-1.2z" id="Rectangle" stroke="#007FFF" stroke-width="1.8" stroke-linecap="round" stroke-linejoin="round"/><circle id="Oval-Copy-2" fill="#B2D3FE" cx="5.736" cy="6.215" r="1"/><circle id="Oval-Copy-3" fill="#B2D3FE" cx="8.544" cy="6.215" r="1"/><circle id="Oval-Copy-4" fill="#B2D3FE" cx="11.352" cy="6.215" r="1"/></g></g></g></g></g></g></g></g></g></g></svg>