<svg width="22" height="18" viewBox="0 0 22 18" xmlns="http://www.w3.org/2000/svg"><g id="Page-1" stroke="none" stroke-width="1" fill="none" fill-rule="evenodd"><g id="Deploy-Page-6" transform="translate(-405 -3011)"><g id="Group-64-Copy-2" transform="translate(0 750)"><g id="Group-63" transform="translate(109 410)"><g id="Group-62" transform="translate(0 1240)"><g id="Group-59" transform="translate(88 24)"><g id="Group-58" transform="translate(0 537)"><g id="Group-37" transform="translate(207 45)"><g id="Group-39-Copy"><g id="icon-User-Language-Copy-2" transform="translate(0 1)"><path id="Rectangle" d="M0 0h24v24H0z"/><path d="M3.83 5.76h16.34a.95.95 0 01.95.95v8.91a.95.95 0 01-.95.95H16.5c-.353 0-.695.126-.963.357l-3.77 3.233h0v-3.59H3.83a.95.95 0 01-.949-.95V6.71a.95.95 0 01.95-.95z" id="Rectangle" stroke="#007FFF" stroke-width="1.8" stroke-linecap="round" stroke-linejoin="round"/><circle id="Oval" fill="#B2D3FE" cx="8.086" cy="11.446" r="1.366"/><circle id="Oval-Copy" fill="#B2D3FE" cx="11.926" cy="11.446" r="1.366"/><circle id="Oval-Copy-2" fill="#B2D3FE" cx="15.766" cy="11.446" r="1.366"/></g></g></g></g></g></g></g></g></g></g></svg>