<svg width="22" height="23" viewBox="0 0 22 23" xmlns="http://www.w3.org/2000/svg"><g id="Page-1" stroke="none" stroke-width="1" fill="none" fill-rule="evenodd"><g id="Deploy-Page-6" transform="translate(-198 -3007)"><g id="Group-64-Copy-2" transform="translate(0 750)"><g id="Group-63" transform="translate(109 410)"><g id="Group-62" transform="translate(0 1240)"><g id="Group-59" transform="translate(88 24)"><g id="Group-58" transform="translate(0 537)"><g id="Group-34" transform="translate(0 45)"><g id="Group-39"><g id="icon-Geo-Location-Copy-2" transform="translate(0 1)"><g id="Group"><path id="Rectangle" d="M0 0h24v24H0z"/><g id="grid-world" transform="translate(1.8 1.2)"><path id="Path-2" fill="#B2D3FE" d="M4.567 10.8l.833 4.306 4.8-.706v-3.881z"/><path id="Path-2-Copy" fill="#B2D3FE" d="M10.2 6.281l.833 4.306 4.8-.706V6z"/><path id="Path-3" fill="#B2D3FE" d="M15.3 14.7l-2.283 4.845 2.955-1.933 2.23-2.184z"/><path d="M20.376 9.818C20.04 4.567 15.972.368 10.88.024V0H9.52v.024C4.428.369.358 4.567.023 9.817H0v1.403h.023c.335 5.251 4.405 9.447 9.497 9.792v.026h1.36v-.026c5.092-.345 9.161-4.541 9.496-9.792h.024V9.818h-.024zM6.386 2.293c-.658.9-1.203 2.03-1.6 3.317H2.749a8.981 8.981 0 013.636-3.317zm-4.349 4.72h2.391a17.152 17.152 0 00-.334 2.805H1.386a9.271 9.271 0 01.651-2.805zm-.651 4.207h2.708c.036.978.152 1.919.334 2.805h-2.39a9.271 9.271 0 01-.652-2.805zm1.363 4.207h2.035c.398 1.288.943 2.417 1.601 3.317a8.971 8.971 0 01-3.636-3.316zm6.771 4.118c-1.398-.385-2.602-1.934-3.332-4.118H9.52v4.118zm0-5.52H5.806a16.139 16.139 0 01-.352-2.805H9.52v2.805zm0-4.207H5.454c.039-.988.16-1.932.352-2.805H9.52v2.805zm0-4.208H6.188c.73-2.184 1.934-3.732 3.332-4.116V5.61zm8.131 0h-2.034c-.399-1.287-.943-2.417-1.602-3.317A8.99 8.99 0 0117.65 5.61zM10.88 1.494c1.397.384 2.602 1.932 3.332 4.116H10.88V1.494zm0 5.519h3.713c.193.873.311 1.817.353 2.805H10.88V7.013zm0 4.207h4.066c-.039.987-.16 1.931-.353 2.805H10.88V11.22zm0 8.325v-4.118h3.332c-.73 2.184-1.935 3.733-3.332 4.118zm3.135-.8c.657-.902 1.203-2.03 1.602-3.318h2.034a8.98 8.98 0 01-3.636 3.317zm4.348-4.72h-2.391c.182-.886.298-1.827.334-2.805h2.707a9.23 9.23 0 01-.65 2.805zm-2.057-4.207a17.152 17.152 0 00-.334-2.805h2.39c.354.873.58 1.817.652 2.805h-2.708z" id="Shape" stroke="#007FFF" stroke-width=".5" fill="#007FFF" fill-rule="nonzero"/></g></g></g></g></g></g></g></g></g></g></g></g></svg>